<?xml version="1.0" encoding="utf-8"?>
<!-- Generator: Adobe Illustrator 19.1.0, SVG Export Plug-In . SVG Version: 6.00 Build 0)  -->
<svg version="1.1" id="Layer_1" xmlns="http://www.w3.org/2000/svg" xmlns:xlink="http://www.w3.org/1999/xlink" x="0px" y="0px"
	 viewBox="0 0 170 170" style="enable-background:new 0 0 170 170;" xml:space="preserve">
<style type="text/css">
	.st0{fill:#113E68;}
</style>
<g>
	<path class="st0" d="M114.3,59.3c0-3.3-1.8-6.2-4.8-7.7c-0.1,0-0.1-0.1-0.2-0.1l-12.8-5.3l-2.4-7.3l1.2-0.7
		c2.6-1.5,4.2-4.4,4.2-7.4V17.9c0-6.5-5.2-11.7-11.7-11.7h-6.2C75.2,6.2,70,11.4,70,17.9v12.9c0,3,1.6,5.8,4.2,7.4l1.2,0.7l-2.4,7.3
		l-12.8,5.3c-0.1,0-0.1,0-0.2,0.1C57,53,55.2,56,55.2,59.3v8.5h4.9v-8.5c0-1.4,0.8-2.6,2-3.3l12.2-5l8.7,8.7
		c0.5,0.5,1.1,0.7,1.7,0.7c0.6,0,1.3-0.2,1.7-0.7l8.7-8.7l12.2,5c1.2,0.6,2,1.9,2,3.3v48.5c0,3.7-3,6.8-6.8,6.8H102V85H97v54.2h4.9
		v-19.7h0.6c6.5,0,11.7-5.2,11.7-11.7V59.3z M74.9,17.9c0-3.7,3-6.8,6.8-6.8h6.2c3.7,0,6.8,3,6.8,6.8v12.9c0,1.3-0.7,2.5-1.8,3.2
		l-6.2,3.7c-1.2,0.7-2.6,0.7-3.8,0L76.7,34c-1.1-0.7-1.8-1.9-1.8-3.2V17.9z M84.7,54.4l-7-7l2-5.9l0.6,0.4c1.4,0.8,2.9,1.2,4.4,1.2
		c1.5,0,3.1-0.4,4.4-1.2l0.6-0.4l2,5.9L84.7,54.4z"/>
	<path class="st0" d="M67.5,114.6h-0.6c-3.7,0-6.8-3-6.8-6.8V72.7h-4.9v35.1c0,6.5,5.2,11.7,11.7,11.7h0.6v44.3h4.9V85h-4.9V114.6z"
		/>
	<rect x="97" y="144.1" class="st0" width="4.9" height="19.7"/>
	<rect x="82.3" y="109.6" class="st0" width="4.9" height="54.2"/>
	<path class="st0" d="M20.7,99.8c7.3,0,13.4-5.3,14.6-12.3h15v-4.9h-15c-1.2-7-7.3-12.3-14.6-12.3c-8.1,0-14.8,6.6-14.8,14.8
		C5.9,93.1,12.6,99.8,20.7,99.8 M20.7,75.1c5.4,0,9.9,4.4,9.9,9.9c0,5.4-4.4,9.9-9.9,9.9c-5.4,0-9.9-4.4-9.9-9.9
		C10.8,79.6,15.3,75.1,20.7,75.1"/>
	<path class="st0" d="M148.8,70.2c-7.3,0-13.4,5.3-14.6,12.3h-15v4.9h15c1.2,7,7.3,12.3,14.6,12.3c8.1,0,14.8-6.6,14.8-14.8
		C163.5,76.9,156.9,70.2,148.8,70.2 M148.8,94.9c-5.4,0-9.9-4.4-9.9-9.9c0-5.4,4.4-9.9,9.9-9.9c5.4,0,9.9,4.4,9.9,9.9
		C158.6,90.4,154.2,94.9,148.8,94.9"/>
	<path class="st0" d="M30.6,55.4c4.6,0,9-1.3,12.7-3.5l5.3,5.3l3.5-3.5l-4.8-4.8c4.9-4.5,8-11,8-18.1c0-13.6-11-24.6-24.6-24.6
		C17,6.2,5.9,17.2,5.9,30.8C5.9,44.4,17,55.4,30.6,55.4 M30.6,11.1c10.9,0,19.7,8.8,19.7,19.7c0,10.9-8.8,19.7-19.7,19.7
		c-10.9,0-19.7-8.8-19.7-19.7C10.8,20,19.7,11.1,30.6,11.1"/>
	<path class="st0" d="M28.8,44.8c0.5,0.5,1.1,0.8,1.8,0.8c0.7,0,1.3-0.3,1.8-0.8l10.5-11.1c3.3-3.5,3.3-9.1,0-12.6
		c-1.6-1.7-3.8-2.7-6.1-2.7s-4.5,0.9-6.1,2.7l0,0l0,0c-1.6-1.7-3.8-2.7-6.1-2.7c-2.3,0-4.5,0.9-6.1,2.7c-3.3,3.5-3.3,9.1,0,12.6
		L28.8,44.8z M21.8,24.6c0.7-0.7,1.6-1.1,2.6-1.1s1.9,0.4,2.6,1.1l1.8,1.9c0.5,0.5,1.1,0.8,1.8,0.8c0.7,0,1.3-0.3,1.8-0.8l1.8-1.9
		c0.7-0.7,1.6-1.1,2.6-1.1s1.9,0.4,2.6,1.1c1.5,1.6,1.5,4.2,0,5.8l-8.7,9.2l-8.7-9.2C20.3,28.8,20.3,26.2,21.8,24.6"/>
	<path class="st0" d="M138.9,114.6c-4.6,0-9,1.3-12.7,3.5l-5.3-5.3l-3.5,3.5l4.8,4.8c-4.9,4.5-8,11-8,18.1c0,13.6,11,24.6,24.6,24.6
		c13.6,0,24.6-11,24.6-24.6C163.5,125.6,152.5,114.6,138.9,114.6 M138.9,158.9c-10.9,0-19.7-8.8-19.7-19.7
		c0-10.9,8.8-19.7,19.7-19.7c10.9,0,19.7,8.8,19.7,19.7C158.6,150,149.8,158.9,138.9,158.9"/>
	<path class="st0" d="M143.4,127.9c-0.6-0.8-1.5-1.1-2.5-0.9c-0.9,0.2-1.7,0.9-1.9,1.8l-2.5,10.1l-0.1-0.3c-0.3-1.1-1.3-1.9-2.4-1.9
		h-9.9v4.9h7.9l2,8c0.3,1.1,1.3,1.9,2.4,1.9c1.1,0,2.1-0.8,2.4-1.9l3.7-14.7l4.3,5.7c0.5,0.6,1.2,1,2,1h4.9v-4.9H150L143.4,127.9z"
		/>
	<path class="st0" d="M47.2,121.1l4.8-4.8l-3.5-3.5l-5.3,5.3c-3.7-2.2-8.1-3.5-12.7-3.5c-13.6,0-24.6,11-24.6,24.6
		c0,13.6,11,24.6,24.6,24.6c13.6,0,24.6-11,24.6-24.6C55.2,132,52.1,125.6,47.2,121.1 M30.6,158.9c-10.9,0-19.7-8.8-19.7-19.7
		c0-10.9,8.8-19.7,19.7-19.7c10.9,0,19.7,8.8,19.7,19.7C50.3,150,41.4,158.9,30.6,158.9"/>
	<path class="st0" d="M32.2,125.1c-0.9-0.9-2.4-0.9-3.4,0c-1.8,1.7-10.6,10.4-10.6,16.6c0,6.8,5.5,12.3,12.3,12.3
		c6.8,0,12.3-5.5,12.3-12.3C42.9,135.5,34,126.8,32.2,125.1 M30.6,149c-4.1,0-7.4-3.3-7.4-7.4c0-2.6,3.9-7.6,7.4-11.3
		c3.5,3.6,7.4,8.7,7.4,11.3C37.9,145.7,34.6,149,30.6,149"/>
	<path class="st0" d="M122.2,48.9l-4.8,4.8l3.5,3.5l5.3-5.3c3.7,2.2,8.1,3.5,12.7,3.5c13.6,0,24.6-11,24.6-24.6
		c0-13.6-11-24.6-24.6-24.6c-13.6,0-24.6,11-24.6,24.6C114.3,38,117.4,44.4,122.2,48.9 M138.9,11.1c10.9,0,19.7,8.8,19.7,19.7
		c0,10.9-8.8,19.7-19.7,19.7c-10.9,0-19.7-8.8-19.7-19.7C119.2,20,128.1,11.1,138.9,11.1"/>
	<path class="st0" d="M127.4,40.3l4.5-2.6c1.2,1.3,2.8,2.2,4.6,2.6v5.2h4.9v-5.2c1.8-0.5,3.3-1.4,4.6-2.6l4.5,2.6l2.5-4.3l-4.5-2.6
		c0.2-0.8,0.4-1.7,0.4-2.6s-0.1-1.8-0.4-2.6l4.5-2.6l-2.5-4.3l-4.5,2.6c-1.2-1.3-2.8-2.2-4.6-2.6V16h-4.9v5.2
		c-1.8,0.5-3.3,1.4-4.6,2.6l-4.5-2.6l-2.5,4.3l4.5,2.6c-0.2,0.8-0.4,1.7-0.4,2.6s0.1,1.8,0.4,2.6l-4.5,2.6L127.4,40.3z M138.9,25.9
		c2.7,0,4.9,2.2,4.9,4.9s-2.2,4.9-4.9,4.9c-2.7,0-4.9-2.2-4.9-4.9S136.2,25.9,138.9,25.9"/>
</g>
</svg>
