<?xml version="1.0" encoding="utf-8"?>
<!-- Generator: Adobe Illustrator 19.1.0, SVG Export Plug-In . SVG Version: 6.00 Build 0)  -->
<svg version="1.1" id="Layer_1" xmlns="http://www.w3.org/2000/svg" xmlns:xlink="http://www.w3.org/1999/xlink" x="0px" y="0px"
	 viewBox="0 0 1218.5 905.5" style="enable-background:new 0 0 1218.5 905.5;" xml:space="preserve">
<style type="text/css">
	.st0{clip-path:url(#SVGID_2_);fill:#FFFFFF;}
	.st1{fill:#F06375;}
	.st2{opacity:0.15;}
	.st3{clip-path:url(#SVGID_4_);fill:#892F3B;}
	.st4{clip-path:url(#SVGID_6_);fill:#892F3B;}
	.st5{clip-path:url(#SVGID_8_);fill:url(#SVGID_9_);}
	.st6{clip-path:url(#SVGID_11_);fill:url(#SVGID_12_);}
	.st7{clip-path:url(#SVGID_14_);fill:#892F3B;}
	.st8{clip-path:url(#SVGID_16_);fill:#892F3B;}
	.st9{fill:#EBA720;}
</style>
<g>
	<defs>
		<rect id="SVGID_1_" width="1218.5" height="905.5"/>
	</defs>
	<clipPath id="SVGID_2_">
		<use xlink:href="#SVGID_1_"  style="overflow:visible;"/>
	</clipPath>
	<path class="st0" d="M765.7,905H0.5V0.5h765.2C1015.5,0.5,1218,203,1218,452.8v0C1218,702.5,1015.5,905,765.7,905"/>
</g>
<g>
	<path class="st1" d="M486.5,337.6c0,0.7-0.7,0.7-2,0.7l-41.5-2l34.9,21.1c0.7,0.7,1.3,1.3,0.7,2l-1.3,3.3c-0.7,1.3-1.3,1.3-2,0.7
		l-43.4-26.3c-0.7,0-0.7-0.7-0.7-0.7c0-0.7,0-0.7,0-1.3l2.6-5.3c0-0.7,0.7-0.7,2-0.7l41.5,2l-28.3-30.3c-0.7,0-0.7-0.7-0.7-0.7
		c0-0.7,0-0.7,0-0.7l2.6-5.3c0-0.7,0.7-0.7,0.7-0.7c0.7,0,0.7,0,1.3,0l48,15.8c0.7,0.7,1.3,1.3,0.7,2l-1.3,3.3
		c-0.7,1.3-1.3,1.3-2.6,0.7l-38.2-13.2l28.3,30.3c0.7,0.7,0.7,1.3,0.7,2L486.5,337.6z"/>
	<path class="st1" d="M535.2,256.6c0.7,2.6,0,5.9-0.7,8.6c-0.7,2.6-2,5.3-3.9,7.9c-1.3,2-2.6,3.3-4.6,4.6c-2,1.3-3.3,2-5.3,2.6
		c-2,0.7-3.9,1.3-5.9,1.3s-3.9,0-5.9,0c-2,0-3.9-0.7-5.9-2c-2-0.7-3.9-2-5.3-3.3c-2-1.3-3.3-2.6-4.6-4.6c-1.3-2-2-3.3-2.6-5.3
		s-1.3-3.9-1.3-5.9c0-2,0-3.9,0-5.9c0-2,0.7-3.9,2-5.9c0.7-2,2-3.9,3.3-5.3c2-2.6,4.6-4.6,7.2-5.9c2.6-1.3,5.3-2,8.6-2.6l-3.3-2.6
		c-0.7-0.7-0.7-1.3,0-2l2.6-2.6c0.7-0.7,1.3-0.7,2,0l32.9,27c0.7,0,0.7,0.7,0.7,1.3c0,0.7,0,0.7-0.7,1.3l-2.6,2.6
		c0,0.7-0.7,0.7-1.3,0.7s-0.7,0-1.3-0.7L535.2,256.6z M522,246.1c-2-1.3-3.9-2.6-5.9-3.3c-2-0.7-3.9-0.7-6.6-0.7c-2,0-3.9,0.7-5.9,2
		c-2,0.7-3.9,2.6-5.3,3.9c-1.3,2-2.6,3.9-2.6,5.9c-0.7,2-0.7,3.9-0.7,6.6c0,2,0.7,3.9,2,5.9c1.3,2,2.6,3.9,3.9,5.3
		c2,1.3,3.9,2.6,5.9,3.3c2,0.7,4.6,0.7,6.6,0.7s3.9-0.7,5.9-1.3c2-0.7,3.9-2,5.3-3.9c1.3-2,2.6-3.9,2.6-5.9c0.7-2,0.7-4.6,0.7-6.6
		c0-2-0.7-3.9-2-5.9C525.3,248.8,524,247.4,522,246.1"/>
	<path class="st1" d="M543.7,202c0-1.3,0-2,0-3.3c0-1.3,0.7-2,0.7-3.3c0.7-1.3,1.3-2,2-3.3c0.7-1.3,2-2,3.3-3.3
		c2.6-2,4.6-3.3,7.2-3.9c2.6-0.7,4.6-0.7,7.2,0c2,0.7,4.6,1.3,6.6,2.6c2,1.3,3.9,3.3,5.9,5.3l15.1,19.1c0.7,0.7,0.7,1.3,0.7,2
		s-0.7,1.3-0.7,1.3l-2.6,2c-0.7,0.7-1.3,0.7-2,0.7s-0.7-0.7-1.3-1.3l-15.1-19.1c-0.7-1.3-2-2-3.3-3.3c-1.3-0.7-2.6-1.3-3.9-2
		c-1.3-0.7-3.3-0.7-4.6,0c-1.3,0-3.3,1.3-5.3,2.6c-1.3,0.7-2,2-2.6,3.3c-0.7,1.3-1.3,2.6-2,3.9c-0.7,1.3-0.7,3.3,0,4.6
		c0,1.3,0.7,3.3,2,4.6l16.5,21.1c0.7,0.7,0.7,1.3,0,2l-2.6,2c-0.7,0.7-2,0.7-2.6,0l-26.3-33.6c0-0.7-0.7-0.7-0.7-1.3
		c0-0.7,0-0.7,0.7-1.3l2.6-2.6c0.7,0,0.7-0.7,1.3-0.7s0.7,0,1.3,0.7L543.7,202z"/>
	<path class="st1" d="M602.3,181c-1.3-2.6-2-5.9-2-9.2c0-3.3,0-5.9,1.3-9.2c1.3-2.6,2.6-5.3,4.6-7.9c2-2.6,4.6-3.9,7.2-5.9
		c2-0.7,3.9-1.3,5.9-2c2-0.7,3.9-0.7,5.9,0c2,0,3.9,0.7,5.9,1.3s3.9,1.3,5.3,2.6c2,1.3,3.3,2.6,4.6,3.9c1.3,1.3,2.6,3.3,3.3,5.3
		c0.7,2,1.3,3.9,2,5.9c0.7,2,0.7,3.9,0,5.9c0,2-0.7,3.9-1.3,5.9c-0.7,2-1.3,3.9-2.6,5.3c-1.3,2-2.6,3.3-3.9,4.6
		c-1.3,1.3-3.3,2.6-5.3,3.3s-3.9,1.3-5.9,2c-2,0.7-3.9,0.7-5.9,0c-2,0-3.9-0.7-5.9-1.3s-3.9-1.3-5.3-2.6c-2-1.3-3.3-2.6-4.6-3.9
		C604.3,184.3,602.9,182.3,602.3,181 M608.9,177.7c1.3,2,2.6,3.9,3.9,5.3c2,1.3,3.3,2.6,5.3,3.3c2,0.7,3.9,1.3,6.6,1.3
		c2,0,4.6-0.7,6.6-1.3c2-0.7,3.9-2.6,5.3-3.9c1.3-2,2.6-3.3,3.3-5.3c0.7-2,0.7-3.9,0.7-6.6c0-2-0.7-4.6-2-6.6c-0.7-2-2-3.9-3.9-5.3
		c-2-1.3-3.3-2.6-5.3-3.3c-2-0.7-3.9-1.3-6.6-1.3c-2,0-4.6,0.7-6.6,1.3c-2,1.3-3.9,2.6-5.3,3.9c-1.3,2-2.6,3.3-3.3,5.9
		c-0.7,2-0.7,3.9-0.7,6.6C606.9,173.1,607.5,175.7,608.9,177.7"/>
	<path class="st1" d="M673.4,165.2l-0.7-0.7v-0.7c0,0,0,0,0-0.7c0,0,0,0,0.7-0.7l2.6-2.6c0.7-0.7,0.7-0.7,1.3,0
		c0.7,0,0.7,0.7,1.3,0.7c0.7,0.7,1.3,1.3,2,2c0.7,0.7,2,0.7,2.6,1.3c1.3,0,2,0,2.6,0s2,0,2.6,0c0.7,0,2-0.7,2.6-1.3
		c1.3-0.7,2-1.3,2.6-2c0.7-0.7,1.3-2,2-2.6c0.7-1.3,0.7-2,0-3.3c0-1.3-0.7-2-2-2.6c-0.7-0.7-2-1.3-2.6-1.3c-1.3,0-2-0.7-3.3-0.7
		s-2.6,0-3.9,0c-2,0-3.9,0-5.9-0.7c-2-0.7-3.3-0.7-4.6-2c-1.3-0.7-2.6-2-3.3-3.3c-0.7-1.3-1.3-2.6-2-4.6c-0.7-2-0.7-3.9,0-5.3
		c0.7-2,1.3-3.3,2-4.6c1.3-1.3,2.6-2.6,3.9-3.9c2-1.3,3.3-2,5.9-2.6c2-0.7,3.3-0.7,4.6-0.7s2.6,0,3.9,0.7c1.3,0.7,2,0.7,3.3,2
		c1.3,0.7,2,1.3,3.3,2.6c0.7,0.7,0.7,0.7,0.7,1.3s0,0.7-0.7,1.3l-2,2.6c-0.7,0.7-0.7,0.7-1.3,0.7c0,0-0.7,0-1.3-0.7
		c-0.7-0.7-1.3-0.7-2-1.3c-0.7-0.7-1.3-0.7-2-1.3c-0.7,0-1.3-0.7-2.6-0.7c-0.7,0-2,0-3.3,0.7c-1.3,0-2,0.7-2.6,1.3s-2,1.3-2,2
		c-0.7,0.7-1.3,1.3-1.3,2.6c0,0.7,0,2,0,2.6c0,0.7,0.7,1.3,1.3,2c0.7,0.7,1.3,0.7,2.6,1.3s2,0.7,3.3,0.7c1.3,0,2,0,3.3,0
		c2.6,0,4.6,0,6.6,0.7c2,0,3.9,0.7,5.3,1.3s2.6,2,3.9,3.3c1.3,1.3,2,2.6,2.6,4.6s0.7,3.9,0,5.9c-0.7,2-1.3,3.3-2.6,5.3
		c-1.3,1.3-2.6,2.6-4.6,3.9c-2,1.3-3.9,2-5.9,2.6c-1.3,0.7-2.6,0.7-4.6,0.7c-1.3,0-3.3,0-4.6-0.7c-1.3-0.7-3.3-1.3-4.6-2
		C675.3,167.8,674,166.5,673.4,165.2"/>
	<path class="st1" d="M774.7,158.6c0,0.7-0.7,0.7-0.7,0.7c-0.7,0-0.7,0-1.3,0h-3.9c-1.3,0-1.3-0.7-1.3-1.3c0,0,0,0,0-0.7l0,0l0,0
		l25-48c0,0,0,0,0-0.7c0,0,0,0,0-0.7c0,0,0,0,0.7,0h0.7h2.6c0.7,0,0.7,0,0.7,0s0.7,0,0.7,0.7c0,0,0,0,0,0.7c0,0,0,0,0,0.7l16.5,51.3
		c0,0,0,0,0,0.7c0,0,0,0,0,0.7l0,0c0,0.7-0.7,1.3-2,1.3h-3.9c-0.7,0-0.7,0-1.3-0.7c0,0-0.7-0.7-0.7-1.3l-2-10.5l-25-2
		c-1.3,2-2,3.9-2.6,5.9C776,156.6,775.4,157.9,774.7,158.6 M782.6,142.8l19.7,1.3l-7.9-25L782.6,142.8z"/>
	<path class="st1" d="M845.8,169.1c0,1.3-0.7,1.3-2,1.3l-3.3-0.7c-1.3,0-1.3-0.7-1.3-2l13.8-54.6c0-0.7,0.7-0.7,0.7-1.3
		c0.7,0,0.7,0,1.3,0l3.9,0.7c0.7,0,0.7,0.7,1.3,0.7c0,0.7,0,0.7,0,1.3L845.8,169.1z"/>
	<path class="st1" d="M880,180.3c-0.7,0.7-1.3,1.3-2,0.7l-3.3-1.3c-1.3-0.7-1.3-1.3-1.3-2l15.1-39.5c0-0.7,0.7-0.7,0.7-0.7
		c0.7,0,0.7,0,1.3,0l3.3,1.3c0.7,0,0.7,0.7,0.7,0.7c0,0.7,0,0.7,0,1.3L880,180.3z M898.4,131.6c-0.7,1.3-1.3,1.3-2,0.7l-3.3-1.3
		c-1.3-0.7-1.3-1.3-1.3-2l1.3-3.3c0-0.7,0.7-0.7,0.7-0.7c0.7,0,0.7,0,1.3,0l3.3,1.3c0.7,0,0.7,0.7,0.7,0.7c0,0.7,0,0.7,0,1.3
		L898.4,131.6z"/>
	<path class="st1" d="M940.5,207.3c-2.6,0.7-5.9,0.7-8.6,0.7c-3.3-0.7-5.9-1.3-8.6-3.3c-2-1.3-3.3-2.6-4.6-3.9
		c-1.3-1.3-2.6-3.3-3.3-5.3c-0.7-2-2-3.9-2-5.9c-0.7-2-0.7-3.9-0.7-5.9c0-2,0-3.9,0.7-5.9c0.7-2,1.3-3.9,2.6-5.9
		c1.3-2,2.6-3.3,3.9-4.6c1.3-1.3,3.3-2.6,5.3-3.3c2-0.7,3.9-2,5.9-2c2-0.7,3.9-0.7,5.9-0.7s3.9,0,5.9,0.7c2,0.7,3.9,1.3,5.9,2.6
		c2.6,2,5.3,3.9,6.6,5.9c2,2.6,2.6,5.3,3.3,7.9l2-3.9c0.7-0.7,1.3-1.3,2-0.7l3.3,2c0.7,0.7,1.3,1.3,0.7,2l-21.7,36.2
		c0,0.7-0.7,0.7-1.3,0.7s-0.7,0-1.3,0l-3.9-1.3c-0.7,0-0.7-0.7-0.7-1.3c0-0.7,0-0.7,0-1.3L940.5,207.3z M949.1,192.8
		c1.3-2,2-3.9,2-5.9c0-2,0-4.6,0-6.6c-0.7-2-1.3-3.9-2.6-5.9c-1.3-2-2.6-3.3-4.6-4.6s-3.9-2-5.9-2s-3.9,0-6.6,0.7
		c-2,0.7-3.9,1.3-5.9,2.6c-2,1.3-3.3,2.6-4.6,4.6c-1.3,2-2,3.9-2,5.9c-0.7,2,0,4.6,0,6.6c0.7,2,1.3,3.9,2.6,5.9s2.6,3.3,4.6,4.6
		c2,1.3,3.9,2,5.9,2s4.6,0,6.6-0.7c2-0.7,3.9-1.3,5.9-2.6C946.5,196.1,947.8,194.8,949.1,192.8"/>
	<path class="st1" d="M991.9,259.3c-0.7-0.7-0.7-1.3,0-2l3.3-3.3c-2.6,0-5.9-0.7-8.6-1.3c-2.6-1.3-5.3-2.6-7.9-4.6
		c-1.3-1.3-2.6-3.3-3.9-5.3c-1.3-2-2-3.9-2.6-5.9c-0.7-2-0.7-3.9-0.7-5.9c0-2,0-3.9,0.7-5.9c0.7-2,1.3-3.9,2-5.9
		c1.3-2,2-3.3,3.9-5.3c1.3-1.3,3.3-2.6,5.3-3.9c2-1.3,3.9-2,5.9-2.6s3.9-0.7,5.9-0.7s3.9,0,5.9,0.7s3.9,1.3,5.9,2
		c2,0.7,3.3,2,5.3,3.9c2,2,3.9,4.6,5.3,7.2c1.3,2.6,2,5.9,2,8.6l12.5-13.2c0,0,0.7-0.7,1.3-0.7s0.7,0,1.3,0.7l2.6,2.6
		c0,0,0.7,0.7,0.7,1.3c0,0.7,0,0.7-0.7,1.3l-38.8,40.1c-0.7,0.7-1.3,0.7-2.6,0L991.9,259.3z M1006.3,242.2c1.3-1.3,2.6-3.3,3.3-5.3
		c0.7-2,1.3-3.9,1.3-6.6c0-2-0.7-4.6-1.3-6.6c-0.7-2-2-3.9-3.3-5.3c-1.3-1.3-3.3-2.6-5.3-3.3s-3.9-1.3-6.6-0.7c-2,0-3.9,0.7-6.6,1.3
		c-2,0.7-3.9,2-5.3,3.9c-1.3,1.3-2.6,3.3-3.3,5.3c-0.7,2-1.3,3.9-1.3,6.6c0,2,0.7,3.9,1.3,5.9c0.7,2,2,3.9,3.3,5.3
		c1.3,1.3,3.3,2.6,5.3,3.3s3.9,1.3,6.6,1.3c2,0,3.9-0.7,6.6-1.3C1003,244.8,1005,243.5,1006.3,242.2"/>
	<path class="st1" d="M1037.3,311.3c-2.6-0.7-5.3-2-7.9-3.3c-2.6-2-4.6-3.9-6.6-6.6c-1.3-2-2-3.9-2.6-5.9c-0.7-2-0.7-3.9-1.3-5.9
		c0-2,0-3.9,0.7-5.9c0.7-2,1.3-3.9,2-5.9c0.7-2,2-3.3,3.3-5.3c1.3-1.3,3.3-2.6,4.6-3.9c2-1.3,3.9-2,5.9-2.6c2-0.7,3.9-0.7,5.9-1.3
		c2,0,3.9,0,5.9,0.7c2,0.7,3.9,1.3,5.9,2c2,0.7,3.3,2,5.3,3.3c1.3,1.3,2.6,3.3,3.9,4.6c2,2.6,2.6,5.3,3.3,8.6c0.7,2.6,0.7,5.9,0,8.6
		l3.9-2.6c0.7-0.7,1.3-0.7,2,0.7l2,3.3c0.7,0.7,0.7,2-0.7,2l-36.2,23c-0.7,0-0.7,0.7-1.3,0c-0.7,0-0.7-0.7-0.7-0.7l-2-3.3
		c0-0.7-0.7-0.7,0-1.3c0-0.7,0.7-0.7,0.7-0.7L1037.3,311.3z M1051.7,302.7c2-1.3,3.3-2.6,4.6-4.6c1.3-2,2-3.9,2.6-5.9s0.7-3.9,0-6.6
		c0-2-1.3-3.9-2-5.9c-1.3-2-2.6-3.3-4.6-4.6s-3.9-2-5.9-2.6c-2-0.7-3.9-0.7-6.6,0c-2,0.7-3.9,1.3-5.9,2.6s-3.3,2.6-4.6,4.6
		c-1.3,2-2,3.9-2.6,5.9c-0.7,2-0.7,3.9-0.7,6.6c0,2,1.3,3.9,2,5.9c1.3,2,2.6,3.3,4.6,4.6c2,1.3,3.9,2,5.9,2.6c2,0.7,4.6,0.7,6.6,0
		C1047.8,304.7,1049.8,304,1051.7,302.7"/>
	<path class="st1" d="M1053.7,338.3l0.7-0.7h0.7c0,0,0,0,0.7,0s0.7,0,0.7,0.7l2.6,2.6c0.7,0.7,0.7,0.7,0.7,1.3
		c0,0.7-0.7,0.7-0.7,1.3c-0.7,0.7-1.3,1.3-2,2.6c-0.7,0.7-0.7,2-0.7,3.3s0,2,0,2.6s0,2,0.7,2.6c0,0.7,0.7,2,1.3,2.6
		c0.7,0.7,1.3,2,2,2.6c0.7,0.7,2,1.3,2.6,1.3c1.3,0,2,0,3.3,0c1.3-0.7,2-1.3,2.6-2c0.7-0.7,0.7-2,0.7-3.3s0-2,0-3.3
		c0-1.3,0-2.6-0.7-3.9c0-2,0-3.9,0-5.9c0-2,0.7-3.3,1.3-5.3c0.7-1.3,1.3-2.6,2.6-3.9s2.6-2,3.9-2.6c2-0.7,3.3-0.7,5.3-0.7
		s3.3,0.7,4.6,1.3s2.6,2,3.9,3.3c1.3,1.3,2,3.3,3.3,5.3c0.7,2,1.3,3.3,1.3,4.6c0,1.3,0,2.6,0,3.9c0,1.3-0.7,2.6-1.3,3.3
		c-0.7,1.3-1.3,2.6-2,3.9c-0.7,0.7-0.7,0.7-1.3,0.7c0,0-0.7,0-1.3,0l-3.3-2c-0.7-0.7-0.7-0.7-0.7-1.3c0,0,0-0.7,0.7-1.3
		c0.7-0.7,0.7-1.3,1.3-2c0.7-0.7,0.7-1.3,0.7-2c0-0.7,0-1.3,0-2.6c0-0.7,0-2-0.7-3.3s-0.7-2-1.3-2.6c-0.7-0.7-1.3-1.3-2-2
		c-0.7-0.7-1.3-0.7-2.6-1.3c-0.7,0-2,0-2.6,0.7c-0.7,0-1.3,0.7-2,1.3c-0.7,0.7-0.7,2-1.3,2.6c0,1.3-0.7,2-0.7,3.3s0,2,0,3.3
		c0,2.6,0.7,4.6,0.7,6.6c0,2-0.7,3.9-1.3,5.3c-0.7,2-1.3,3.3-2.6,4.6s-2.6,2-4.6,2.6c-2,0.7-3.9,1.3-5.9,0.7c-2,0-3.3-0.7-5.3-2
		c-1.3-0.7-3.3-2-4.6-3.9s-2.6-3.9-3.3-5.9c-0.7-1.3-0.7-2.6-1.3-4.6c0-1.3,0-3.3,0-4.6c0-1.3,0.7-3.3,1.3-4.6
		C1051.7,340.9,1052.4,339.6,1053.7,338.3"/>
	<g class="st2">
		<g>
			<g>
				<defs>
					<rect id="SVGID_3_" x="531.2" y="232.3" width="462.6" height="475.8"/>
				</defs>
				<clipPath id="SVGID_4_">
					<use xlink:href="#SVGID_3_"  style="overflow:visible;"/>
				</clipPath>
				<path class="st3" d="M590.4,373.1c10.5,0.7,13.2,10.5,9.2,22.4c-9.2,25-17.8,50.7-27,76.3c-2,5.9-1.3,11.8,5.9,13.8
					c7.9,2,9.2-3.9,10.5-9.9c5.3-17.8,9.9-36.9,17.1-54c10.5-24.3,23-48,35.5-71.7c5.9-11.2,17.1-13.2,25-6.6
					c6.6,5.3,7.2,13.2,3.3,22.4c-9.9,21.7-21.1,43.4-30.3,65.8c-6.6,16.5-11.2,33.6-16.5,51.3c-0.7,3.3,2,9.9,4.6,11.2
					c5.3,2.6,9.2-1.3,10.5-7.2c0.7-1.3,0.7-3.3,1.3-4.6c11.8-44.7,30.9-85.5,55.3-124.4c2.6-3.9,5.9-8.6,9.2-11.8
					c6.6-7.2,15.8-7.9,23-3.3c7.2,5.3,9.9,13.8,5.3,22.4c-2,4.6-4.6,8.6-7.2,13.2c-19.7,32.2-34.9,67.1-40.8,104.6
					c-2,13.2-2,27.6-0.7,40.8c1.3,12.5,10.5,19.1,21.1,19.1c11.2,0,18.4-7.2,21.1-20.4c1.3-7.2,2.6-15.1,4.6-21.7
					c2.6-8.6,8.6-15.1,18.4-15.1s17.1,4.6,20.4,13.8c2.6,7.9,4.6,15.8,4.6,23.7c2,41.5-10.5,77.7-36.2,110.6
					c-8.6,11.2-17.8,21.7-27,32.9c-5.3,6.6-3.9,13.2,0.7,19.7c0,0,0,0,0.7,0.7c5.9,8.6,0,20.4-10.5,20.4c-5.9,0-11.8-0.7-17.8-1.3
					c-82.9-13.2-150-88.8-153.3-178.3c-1.3-45.4,13.2-86.9,32.2-127.7c2.6-5.9,5.3-11.8,9.2-17.1
					C576.6,377.7,582.5,372.5,590.4,373.1"/>
			</g>
			<g>
				<defs>
					<rect id="SVGID_5_" x="531.2" y="232.3" width="462.6" height="475.8"/>
				</defs>
				<clipPath id="SVGID_6_">
					<use xlink:href="#SVGID_5_"  style="overflow:visible;"/>
				</clipPath>
				<path class="st4" d="M934.6,567.3c-10.5-0.7-13.2-10.5-9.2-22.4c9.2-25,17.8-50.7,27-76.3c2-5.9,1.3-11.8-5.9-13.8
					c-7.9-2-9.2,3.9-10.5,9.9c-5.3,17.8-9.9,36.9-17.1,54c-10.5,24.3-23,48-35.5,71.7c-5.9,11.2-17.1,13.2-25,6.6
					c-6.6-5.3-7.2-13.2-3.3-22.4c9.9-21.7,21.1-43.4,30.3-65.8c6.6-16.5,11.2-33.6,16.5-51.3c0.7-3.3-2-9.9-4.6-11.2
					c-5.3-2.6-9.2,1.3-10.5,7.2c-0.7,1.3-0.7,3.3-1.3,4.6c-11.8,44.7-30.9,85.5-55.3,124.4c-2.6,3.9-5.9,8.6-9.2,11.8
					c-6.6,7.2-15.8,7.9-23,3.3c-7.2-5.3-9.9-13.8-5.3-22.4c2-4.6,4.6-8.6,7.2-13.2c19.7-32.2,34.9-67.1,40.8-104.6
					c2-13.2,2-27.6,0.7-40.8c-1.3-12.5-10.5-19.1-21.1-19.1c-11.2,0-18.4,7.2-21.1,20.4c-1.3,7.2-2.6,15.1-4.6,21.7
					c-2.6,8.6-8.6,15.1-18.4,15.1c-9.9,0-17.1-4.6-20.4-13.8c-2.6-7.9-4.6-15.8-4.6-23.7c-2-41.5,10.5-77.7,36.2-110.6
					c8.6-11.2,17.8-21.7,27-32.9c5.3-6.6,3.9-13.2-0.7-19.7c0,0,0,0-0.7-0.7c-5.9-8.6,0-20.4,10.5-20.4c5.9,0,11.8,0.7,17.8,1.3
					c82.9,13.2,150,88.8,153.3,178.3c1.3,45.4-13.2,86.9-32.2,127.7c-2.6,5.9-5.3,11.8-9.2,17.1
					C948.4,562.7,941.8,567.9,934.6,567.3"/>
			</g>
		</g>
	</g>
	<g>
		<g>
			<defs>
				<path id="SVGID_7_" d="M645.7,345.5c-12.5,23.7-25,47.4-35.5,71.7c-7.2,17.1-11.8,35.5-17.1,54c-2,5.9-3.3,11.8-10.5,9.9
					c-7.2-2-7.9-7.9-5.9-13.8c8.6-25.7,17.1-51.3,27-76.3c4.6-11.8,2-21.7-9.2-22.4c-7.2-0.7-13.8,4.6-17.8,10.5
					c-3.9,5.3-6.6,11.2-9.2,17.1c-19.1,40.1-33.6,82.3-32.2,127.7c2.6,89.5,70.4,165.2,153.3,178.3c5.9,0.7,11.8,1.3,17.8,1.3
					c10.5,0,17.1-11.8,10.5-20.4c0,0,0,0-0.7-0.7c-4.6-6.6-5.9-13.2-0.7-19.7c8.6-11.2,18.4-21.7,27-32.9
					c25-32.2,37.5-69.1,36.2-110.6c0-7.9-2-16.5-4.6-23.7c-3.3-9.2-10.5-13.8-20.4-13.8s-15.8,6.6-18.4,15.1
					c-2,7.2-3.3,14.5-4.6,21.7c-2.6,12.5-10.5,19.7-21.1,20.4c-10.5,0-19.7-6.6-21.1-19.1c-1.3-13.8-1.3-27.6,0.7-40.8
					c5.9-37.5,21.1-72.4,40.8-104.6c2.6-4.6,5.3-8.6,7.2-13.2c3.9-8.6,2-17.1-5.3-22.4c-7.2-5.3-16.5-3.9-23,3.3
					c-3.3,3.9-6.6,7.9-9.2,11.8c-24.3,38.8-44.1,79.6-55.3,124.4c-0.7,1.3-0.7,3.3-1.3,4.6c-2,5.3-5.3,9.9-10.5,7.2
					c-2.6-1.3-5.9-7.9-4.6-11.2c4.6-17.1,9.2-34.9,16.5-51.3c9.2-22.4,19.7-44.1,30.3-65.8c4.6-9.2,3.3-17.1-2.6-22.4
					c-3.3-2.6-6.6-3.9-10.5-3.9C654.9,335.6,649,338.9,645.7,345.5"/>
			</defs>
			<clipPath id="SVGID_8_">
				<use xlink:href="#SVGID_7_"  style="overflow:visible;"/>
			</clipPath>
			
				<linearGradient id="SVGID_9_" gradientUnits="userSpaceOnUse" x1="-189.1546" y1="165.6523" x2="-187.1027" y2="165.6523" gradientTransform="matrix(177.1378 -161.9546 161.9546 177.1378 7228.8594 -59362.125)">
				<stop  offset="0" style="stop-color:#E9A521"/>
				<stop  offset="1" style="stop-color:#F06375"/>
			</linearGradient>
			<polygon class="st5" points="348.9,502.1 667.4,211.2 964.2,535 645.7,826.5 			"/>
		</g>
	</g>
	<g>
		<g>
			<defs>
				<path id="SVGID_10_" d="M816.2,248.1C816.2,248.1,816.2,248.8,816.2,248.1c4.6,6.6,5.9,13.8,1.3,20.4
					c-8.6,11.2-18.4,21.7-27,32.9c-25,32.2-37.5,69.1-36.2,110.6c0,7.9,2,16.5,4.6,23.7c3.3,9.2,10.5,13.8,20.4,13.8
					s15.8-6.6,18.4-15.1c2-7.2,3.3-14.5,4.6-21.7c2.6-12.5,10.5-19.7,21.1-20.4c10.5,0,19.7,6.6,21.1,19.1
					c1.3,13.8,1.3,27.6-0.7,40.8c-5.9,37.5-21.1,72.4-40.8,104.6c-2.6,4.6-5.3,8.6-7.2,13.2c-3.9,8.6-2,17.1,5.3,22.4
					c7.2,5.3,16.5,3.9,23-3.3c3.3-3.9,6.6-7.9,9.2-11.8c24.3-38.8,44.1-79.6,55.3-124.4c0.7-1.3,0.7-3.3,1.3-4.6
					c2-5.3,5.3-9.9,10.5-7.2c2.6,1.3,5.9,7.9,4.6,11.2c-4.6,17.1-9.2,34.9-16.5,51.3c-9.2,22.4-19.7,44.1-30.3,65.8
					c-4.6,9.2-3.3,17.1,3.3,22.4c8.6,6.6,19.7,4.6,25-6.6c12.5-23.7,25-47.4,35.5-71.7c7.2-17.1,11.8-35.5,17.1-54
					c2-5.9,3.3-11.8,10.5-9.9s7.9,7.9,5.9,13.8c-8.6,25.7-17.1,50.7-27,76.3c-4.6,11.8-2,21.7,9.2,22.4c7.2,0.7,13.8-4.6,17.8-10.5
					c3.9-5.3,6.6-11.2,9.2-17.1c19.1-40.1,33.6-82.3,32.2-127.7c-2.6-89.5-70.4-165.2-153.3-178.3c-5.9-0.7-11.8-1.3-17.8-1.3l0,0
					C816.2,227.7,809.6,239.5,816.2,248.1"/>
			</defs>
			<clipPath id="SVGID_11_">
				<use xlink:href="#SVGID_10_"  style="overflow:visible;"/>
			</clipPath>
			
				<linearGradient id="SVGID_12_" gradientUnits="userSpaceOnUse" x1="-189.1544" y1="165.8327" x2="-187.1025" y2="165.8327" gradientTransform="matrix(177.1378 -161.9546 161.9546 177.1378 7246.8125 -59342.5)">
				<stop  offset="0" style="stop-color:#E9A521"/>
				<stop  offset="1" style="stop-color:#F06375"/>
			</linearGradient>
			<polygon class="st6" points="568.1,396.8 886.6,104.6 1184,429.7 864.9,721.3 			"/>
		</g>
	</g>
	<g class="st2">
		<g>
			<g>
				<defs>
					<rect id="SVGID_13_" x="422" y="438.3" width="687" height="17.1"/>
				</defs>
				<clipPath id="SVGID_14_">
					<use xlink:href="#SVGID_13_"  style="overflow:visible;"/>
				</clipPath>
				<path class="st7" d="M1109,446.8c0,4.6-3.9,8.6-8.6,8.6c-4.6,0-8.6-3.9-8.6-8.6c0-4.6,3.9-8.6,8.6-8.6S1109,442.2,1109,446.8"/>
			</g>
			<g>
				<defs>
					<rect id="SVGID_15_" x="422" y="438.3" width="687" height="17.1"/>
				</defs>
				<clipPath id="SVGID_16_">
					<use xlink:href="#SVGID_15_"  style="overflow:visible;"/>
				</clipPath>
				<path class="st8" d="M439.1,446.8c0,4.6-3.9,8.6-8.6,8.6s-8.6-3.9-8.6-8.6c0-4.6,3.9-8.6,8.6-8.6
					C435.1,438.3,439.1,442.2,439.1,446.8"/>
			</g>
		</g>
	</g>
	<path class="st9" d="M1109.7,445.5c0,4.6-3.9,8.6-8.6,8.6c-4.6,0-8.6-3.9-8.6-8.6c0-4.6,3.9-8.6,8.6-8.6
		C1105.7,437,1109.7,440.9,1109.7,445.5"/>
	<path class="st9" d="M440.4,445.5c0,4.6-3.9,8.6-8.6,8.6c-4.6,0-8.6-3.9-8.6-8.6c0-4.6,3.9-8.6,8.6-8.6
		C436.4,437,440.4,440.9,440.4,445.5"/>
	<path class="st1" d="M755,689c0-3.9,2-6.6,5.9-9.2l3.9-2.6c2.6-1.3,3.9-3.3,3.9-5.9c0-2.6-2-5.3-5.3-5.3c-3.9,0-5.9,2.6-5.9,5.9
		c0,0.7,0,0.7,0,1.3h-2c0,0,0-0.7,0-1.3c0-4.6,3.3-7.9,7.9-7.9c5.3,0,7.9,3.3,7.9,7.2c0,5.3-5.9,7.9-9.9,11.2
		c-1.3,1.3-3.3,2.6-3.3,5.3h13.8v2H755V689z"/>
	<path class="st1" d="M789.2,664c7.2,0,9.2,6.6,9.2,13.2s-2.6,12.5-9.2,12.5c-7.2,0-9.2-6.6-9.2-12.5C780,671.2,782.6,664,789.2,664
		 M789.2,687.7c5.3,0,7.2-4.6,7.2-11.2s-2-11.2-7.2-11.2s-7.2,4.6-7.2,11.2S784.6,687.7,789.2,687.7"/>
	<path class="st1" d="M807.6,689c0-3.9,2-6.6,5.9-9.2l3.9-2.6c2.6-1.3,3.9-3.3,3.9-5.9c0-2.6-2-5.3-5.3-5.3c-3.9,0-5.9,2.6-5.9,5.9
		c0,0.7,0,0.7,0,1.3h-2c0,0,0-0.7,0-1.3c0-4.6,3.3-7.9,7.9-7.9c5.3,0,7.9,3.3,7.9,7.2c0,5.3-5.9,7.9-9.9,11.2
		c-1.3,1.3-3.3,2.6-3.3,5.3h13.8v2h-17.1V689z"/>
	<path class="st1" d="M849.7,681.8c0,4.6-3.9,7.9-8.6,7.9c-5.3,0-8.6-3.3-8.6-7.2l2-0.7c0,3.9,3.3,5.9,6.6,5.9
		c3.9,0,6.6-2.6,6.6-5.9c0-3.9-2.6-5.3-5.9-5.3c-0.7,0-1.3,0-2.6,0l-1.3-2l8.6-8.6h-13.8v-2h16.5v2l-7.9,8.6c0.7,0,0.7,0,1.3,0
		C845.8,674.5,849.7,677.2,849.7,681.8"/>
	<polygon class="st1" points="472.6,554.8 442.4,564.6 441.7,562 472,552.1 468,540.3 470.7,539.6 479.2,565.3 476.6,566.6 	"/>
	<path class="st1" d="M452.9,593.6c-2.6-5.3,0.7-9.9,4.6-11.8l13.2-5.9l1.3,2.6l-13.2,5.9c-3.3,1.3-5.9,4.6-3.9,8.6
		c2,3.9,5.3,4.6,9.2,3.3l13.2-5.9l1.3,2.6l-17.1,7.9c-1.3,0.7-3.3,1.3-3.9,2l-1.3-2.6c0.7,0,1.3-0.7,2.6-1.3l0,0
		C457.5,598.2,454.9,596.9,452.9,593.6"/>
	<path class="st1" d="M491.7,650.2c-2.6,0.7-6.6,0-8.6-3.9c-3.9-5.3-1.3-11.8,3.9-15.8c5.9-3.9,12.5-3.3,15.8,2
		c2.6,3.9,1.3,7.9,0.7,9.2l3.9-2.6l2,2.6l-15.8,10.5c-2,1.3-3.3,2.6-3.3,2.6l-1.3-2.6C489.7,651.5,490.4,650.8,491.7,650.2
		L491.7,650.2z M484.5,644.9c2.6,3.9,7.9,3.9,12.5,1.3c4.6-3.3,5.9-7.9,3.3-11.8s-7.9-4.6-12.5-1.3
		C483.8,636.4,481.9,641,484.5,644.9"/>
	<path class="st1" d="M493.7,675.8l24.3-21.1l2,2l-3.3,3.3c2.6-0.7,6.6-0.7,9.9,3.3c4.6,5.3,2.6,11.2-2.6,15.8
		c-5.3,4.6-11.8,4.6-16.5,0c-2.6-3.3-2.6-7.2-2-9.9l-10.5,9.2L493.7,675.8z M524,664.7c-3.3-3.9-8.6-3.3-12.5,0
		c-3.9,3.3-5.3,8.6-2,12.5c3.3,3.9,8.6,3.3,12.5,0C525.9,673.2,527.3,667.9,524,664.7"/>
	<path class="st1" d="M533.8,689.7c5.3-5.3,11.8-5.9,17.1-1.3c4.6,4.6,5.3,11.2,0,17.1c-5.3,5.3-11.8,5.3-17.1,1.3
		C529.2,702.2,528.6,694.9,533.8,689.7 M535.8,704.1c3.3,3.3,8.6,3.3,13.2-1.3c3.9-4.6,3.3-9.9,0-13.2c-3.3-3.3-8.6-3.3-13.2,1.3
		C531.9,695.6,532.5,701.5,535.8,704.1"/>
	<path class="st1" d="M577.9,715.3c-0.7-0.7-0.7-0.7-1.3-1.3c-3.3-2.6-7.2-2-10.5,2l-7.9,9.9l-2.6-2l13.8-18.4l2,2l-1.3,3.3
		c3.3-2,5.9-1.3,8.6,0.7c0.7,0.7,1.3,0.7,1.3,1.3L577.9,715.3z"/>
	<path class="st1" d="M594.4,722.6l5.3,3.3l-1.3,2l-5.3-3.3l-7.9,11.8c-1.3,2.6-1.3,3.9,1.3,5.9c0.7,0.7,1.3,0.7,2,0.7l-1.3,2
		c-0.7,0-1.3-0.7-2.6-1.3c-3.3-2-3.9-5.3-1.3-8.6l7.9-11.8l-3.9-2.6l1.3-2l1.3,0.7c2,1.3,3.3,0.7,4.6-1.3l2-3.3l2.6,1.3L594.4,722.6
		z"/>
	<path class="st1" d="M620.7,756.8c-3.3,2.6-7.9,3.9-12.5,2c-5.3-2.6-7.9-9.2-4.6-16.5c3.3-6.6,9.9-8.6,15.1-5.9
		c5.9,3.3,7.2,9.2,3.9,15.8c0,0.7,0,0.7-0.7,0.7l-16.5-8.6l0,0c-2.6,4.6-0.7,9.9,3.3,11.8c3.9,2,7.2,0.7,9.2-1.3L620.7,756.8z
		 M621.4,749.5c2-3.9,1.3-7.9-3.3-10.5c-3.9-2-8.6-0.7-10.5,3.3L621.4,749.5z"/>
	<path class="st1" d="M657.6,778.5l-2.6-0.7l10.5-33.6l2.6,0.7l-4.6,15.1c2-2,5.3-2.6,8.6-2c5.3,2,6.6,5.9,5.3,10.5l-4.6,14.5
		l-2.6-0.7l4.6-13.8c1.3-3.3,0-6.6-3.9-7.9c-3.9-1.3-7.2,1.3-8.6,5.3L657.6,778.5z"/>
	<path class="st1" d="M708.2,787.1c-1.3,2-4.6,4.6-9.2,3.3c-6.6-1.3-9.2-7.2-7.9-13.8s6.6-11.2,13.2-9.9c4.6,0.7,6.6,4.6,7.2,6.6
		l0.7-4.6l2.6,0.7l-3.3,18.4c-0.7,2.6-0.7,3.9-0.7,4.6l-2.6-0.7c0-0.7,0-2,0.7-3.9L708.2,787.1z M700.3,787.7
		c4.6,0.7,8.6-2.6,9.9-7.9c1.3-5.3-1.3-9.9-5.9-11.2c-4.6-0.7-8.6,2.6-9.9,7.9C693.1,782.5,695.1,787.1,700.3,787.7"/>
	<path class="st1" d="M731.3,783.1c-0.7,5.9,2.6,9.9,7.2,10.5c4.6,0.7,7.2-2.6,7.9-5.3l2.6,1.3c-1.3,3.3-5.3,6.6-10.5,6.6
		c-6.6-0.7-11.2-5.9-10.5-13.2s5.9-11.8,12.5-11.2c5.3,0.7,8.6,3.9,9.2,7.9l-2.6,0.7c-0.7-2.6-2.6-5.9-6.6-6.6
		C735.9,773.2,731.9,776.5,731.3,783.1"/>
	<path class="st1" d="M785.2,789c-1.3,3.9-4.6,7.2-9.9,7.2c-5.9,0-11.2-3.9-11.8-11.8c0-7.2,4.6-12.5,10.5-12.5
		c6.6,0,11.2,4.6,11.2,11.2c0,0.7,0,0.7,0,1.3l-18.4,0.7l0,0c0,5.3,3.9,8.6,8.6,8.6c3.9,0,6.6-2.6,7.2-5.9L785.2,789z M781.9,782.5
		c0-4.6-3.3-7.9-7.9-7.9s-7.2,3.9-7.9,7.9H781.9z"/>
	
		<rect x="805.3" y="772.4" transform="matrix(-0.1746 -0.9846 0.9846 -0.1746 204.9889 1719.2263)" class="st1" width="35.5" height="2.6"/>
	<path class="st1" d="M860.2,778.5c-0.7,2.6-2,5.9-6.6,7.2c-6.6,2-11.8-2.6-13.8-9.2c-2-6.6,0.7-13.2,7.2-14.5
		c4.6-1.3,7.9,0.7,9.2,2.6l-1.3-3.9l2.6-0.7l4.6,18.4c0.7,2.6,1.3,3.9,1.3,3.9l-2.6,0.7c0-0.7-0.7-2-1.3-3.3L860.2,778.5z
		 M853.7,783.1c4.6-1.3,6.6-5.9,5.3-11.2c-1.3-5.3-5.3-8.6-9.9-7.2s-6.6,5.9-5.3,11.2C844.4,780.5,849.1,783.8,853.7,783.1"/>
	<path class="st1" d="M916.8,756.1c0,2.6-1.3,6.6-5.3,8.6c-5.9,2.6-11.8,0-15.1-6.6c-2.6-5.9-1.3-13.2,4.6-15.8
		c4.6-2,7.9-0.7,9.2,1.3l-7.2-14.5l2.6-1.3l13.2,27.6c1.3,2,2,3.9,2,3.9l-2.6,1.3c-0.7-0.7-1.3-2-2-3.3L916.8,756.1z M910.9,761.4
		c4.6-2,5.3-7.2,3.3-11.8c-2.6-5.3-7.2-7.2-11.2-5.3c-4.6,2-5.9,7.2-3.3,12.5C901.7,761.4,906.3,764,910.9,761.4"/>
	<path class="st1" d="M920.8,718.6c1.3-0.7,2.6-0.7,3.3,0.7c0.7,1.3,0,2.6-0.7,3.3c-1.3,0.7-2.6,0.7-3.3-0.7
		C919.5,720.6,919.5,719.3,920.8,718.6 M937.2,750.2l-11.8-20.4l2.6-1.3l11.8,20.4L937.2,750.2z"/>
	<path class="st1" d="M947.1,719.3l11.8,17.1l-2.6,2l-11.8-17.1l-3.9,2.6l-1.3-2l3.9-2.6l-2.6-3.9c-2.6-3.9-2-7.9,1.3-9.9
		c1.3-0.7,2-0.7,2.6-1.3l1.3,2c-0.7,0-1.3,0.7-2,0.7c-2,1.3-3.3,3.3-0.7,6.6l2.6,3.9l5.3-3.9l1.3,2L947.1,719.3z"/>
	<path class="st1" d="M987.3,706.1c1.3,3.9,0.7,8.6-3.3,11.8c-4.6,3.9-11.8,3.9-16.5-2.6c-4.6-5.9-3.9-12.5,0.7-16.5
		c5.3-4.6,11.2-3.3,15.8,2l0.7,0.7l-14.5,11.8l0,0c3.3,3.9,8.6,4.6,11.8,1.3c3.3-2.6,3.3-5.9,2.6-9.2L987.3,706.1z M980.7,702.8
		c-2.6-3.3-7.2-3.9-11.2-1.3c-3.3,2.6-3.3,7.2-1.3,11.2L980.7,702.8z"/>
	<path class="st1" d="M997.8,677.2c-0.7,0-1.3,0.7-1.3,1.3c-2.6,2.6-3.3,6.6,0.7,10.5l9.2,9.2l-2,2l-16.5-16.5l2-2l3.3,3.3
		c-1.3-3.3-0.7-5.9,2-8.6c0.7-0.7,1.3-0.7,1.3-1.3L997.8,677.2z"/>
	<path class="st1" d="M1029.4,661.4c2,3.3,2.6,8.6-1.3,12.5c-3.9,4.6-10.5,5.9-16.5,0.7c-5.9-4.6-5.9-11.8-2.6-15.8
		c4.6-5.3,10.5-5.3,15.8-0.7l0.7,0.7l-11.8,14.5l0,0c3.9,3.3,9.2,2.6,12.5-0.7c2.6-3.3,2.6-6.6,0.7-9.2L1029.4,661.4z M1022.1,659.4
		c-3.3-2.6-7.9-2.6-11.2,0.7c-2.6,3.3-2,7.9,0.7,11.2L1022.1,659.4z"/>
	<path class="st1" d="M1046.5,649.5l-1.3,2.6l-19.1-13.2l1.3-2.6l3.3,2c-1.3-2.6-1.3-5.9,0.7-8.6c3.3-4.6,7.9-4.6,11.8-2l12.5,8.6
		l-1.3,2.6l-12.5-7.9c-3.3-2-6.6-2-9.2,1.3c-2,3.3-0.7,7.2,2.6,9.2L1046.5,649.5z"/>
	<path class="st1" d="M1055,614c5.3,2.6,10.5,1.3,12.5-3.3c2-3.9,0.7-7.2-1.3-9.2l2-2c2.6,2.6,4.6,7.2,2,12.5
		c-3.3,5.9-9.9,7.9-16.5,4.6c-6.6-3.3-8.6-9.9-5.9-15.8c2.6-5.3,7.2-6.6,11.2-5.3v2.6c-2.6-0.7-6.6,0-8.6,3.9
		C1047.8,606.1,1049.1,611.4,1055,614"/>
	<path class="st1" d="M1047.8,573.2c0.7-1.3,2-2,3.3-1.3c1.3,0.7,2,2,1.3,3.3c-0.7,1.3-2,2-3.3,1.3
		C1047.8,575.8,1047.8,574.5,1047.8,573.2 M1080,588.3l-21.7-9.2l1.3-2.6l21.7,9.2L1080,588.3z"/>
	<path class="st1" d="M1088.6,550.8c2,2,3.9,5.3,2.6,9.2c-2,5.9-8.6,8.6-15.1,6.6c-6.6-2-10.5-7.9-8.6-13.8c1.3-4.6,5.3-5.9,7.2-5.9
		l-3.9-1.3l0.7-2.6l17.8,5.9c2,0.7,3.9,1.3,4.6,1.3l-0.7,2.6c-0.7,0-2-0.7-3.3-0.7L1088.6,550.8z M1089.3,558.7
		c1.3-4.6-1.3-8.6-6.6-10.5c-5.3-2-9.9,0-11.2,4.6c-1.3,4.6,1.3,9.2,6.6,10.5C1082.7,565.3,1087.3,563.3,1089.3,558.7"/>
</g>
</svg>
