<?xml version="1.0" encoding="utf-8"?>
<!-- Generator: Adobe Illustrator 19.1.0, SVG Export Plug-In . SVG Version: 6.00 Build 0)  -->
<svg version="1.1" id="Layer_1" xmlns="http://www.w3.org/2000/svg" xmlns:xlink="http://www.w3.org/1999/xlink" x="0px" y="0px"
	 viewBox="0 0 137.5 137.5" style="enable-background:new 0 0 137.5 137.5;" xml:space="preserve">
<style type="text/css">
	.st0{fill:#FFFFFF;}
	.st1{fill:#F06375;}
	.st2{opacity:0.15;}
	.st3{clip-path:url(#SVGID_2_);fill:#892F3B;}
	.st4{clip-path:url(#SVGID_4_);fill:url(#SVGID_5_);}
	.st5{clip-path:url(#SVGID_7_);fill:url(#SVGID_8_);}
	.st6{clip-path:url(#SVGID_10_);fill:#892F3B;}
	.st7{fill:#EBA720;}
</style>
<g>
	<path class="st0" d="M137.5,68.8c0,38-30.8,68.8-68.8,68.8c-38,0-68.8-30.8-68.8-68.8C0,30.8,30.8,0,68.8,0
		C106.7,0,137.5,30.8,137.5,68.8"/>
	<path class="st1" d="M26.3,51.3c0,0.1-0.1,0.1-0.3,0.1l-6.3-0.3l5.3,3.2c0.1,0.1,0.2,0.2,0.1,0.3l-0.2,0.5
		c-0.1,0.2-0.2,0.2-0.3,0.1l-6.6-4c-0.1,0-0.1-0.1-0.1-0.1c0-0.1,0-0.1,0-0.2l0.4-0.8c0-0.1,0.1-0.1,0.3-0.1l6.3,0.3l-4.3-4.6
		c-0.1,0-0.1-0.1-0.1-0.1c0-0.1,0-0.1,0-0.1l0.4-0.8c0-0.1,0.1-0.1,0.1-0.1c0.1,0,0.1,0,0.2,0l7.3,2.4c0.1,0.1,0.2,0.2,0.1,0.3
		l-0.2,0.5C28.3,48,28.2,48,28,47.9l-5.8-2l4.3,4.6c0.1,0.1,0.1,0.2,0.1,0.3L26.3,51.3z"/>
	<path class="st1" d="M33.7,39c0.1,0.4,0,0.9-0.1,1.3c-0.1,0.4-0.3,0.8-0.6,1.2c-0.2,0.3-0.4,0.5-0.7,0.7c-0.3,0.2-0.5,0.3-0.8,0.4
		c-0.3,0.1-0.6,0.2-0.9,0.2c-0.3,0-0.6,0-0.9,0c-0.3,0-0.6-0.1-0.9-0.3c-0.3-0.1-0.6-0.3-0.8-0.5c-0.3-0.2-0.5-0.4-0.7-0.7
		c-0.2-0.3-0.3-0.5-0.4-0.8c-0.1-0.3-0.2-0.6-0.2-0.9c0-0.3,0-0.6,0-0.9c0-0.3,0.1-0.6,0.3-0.9c0.1-0.3,0.3-0.6,0.5-0.8
		c0.3-0.4,0.7-0.7,1.1-0.9c0.4-0.2,0.8-0.3,1.3-0.4l-0.5-0.4c-0.1-0.1-0.1-0.2,0-0.3l0.4-0.4c0.1-0.1,0.2-0.1,0.3,0l5,4.1
		c0.1,0,0.1,0.1,0.1,0.2c0,0.1,0,0.1-0.1,0.2l-0.4,0.4c0,0.1-0.1,0.1-0.2,0.1c-0.1,0-0.1,0-0.2-0.1L33.7,39z M31.7,37.4
		c-0.3-0.2-0.6-0.4-0.9-0.5c-0.3-0.1-0.6-0.1-1-0.1c-0.3,0-0.6,0.1-0.9,0.3c-0.3,0.1-0.6,0.4-0.8,0.6c-0.2,0.3-0.4,0.6-0.4,0.9
		c-0.1,0.3-0.1,0.6-0.1,1c0,0.3,0.1,0.6,0.3,0.9c0.2,0.3,0.4,0.6,0.6,0.8c0.3,0.2,0.6,0.4,0.9,0.5c0.3,0.1,0.7,0.1,1,0.1
		s0.6-0.1,0.9-0.2c0.3-0.1,0.6-0.3,0.8-0.6c0.2-0.3,0.4-0.6,0.4-0.9c0.1-0.3,0.1-0.7,0.1-1c0-0.3-0.1-0.6-0.3-0.9
		C32.2,37.8,32,37.6,31.7,37.4"/>
	<path class="st1" d="M35,30.7c0-0.2,0-0.3,0-0.5c0-0.2,0.1-0.3,0.1-0.5c0.1-0.2,0.2-0.3,0.3-0.5c0.1-0.2,0.3-0.3,0.5-0.5
		c0.4-0.3,0.7-0.5,1.1-0.6c0.4-0.1,0.7-0.1,1.1,0c0.3,0.1,0.7,0.2,1,0.4c0.3,0.2,0.6,0.5,0.9,0.8l2.3,2.9c0.1,0.1,0.1,0.2,0.1,0.3
		c0,0.1-0.1,0.2-0.1,0.2L41.9,33c-0.1,0.1-0.2,0.1-0.3,0.1c-0.1,0-0.1-0.1-0.2-0.2l-2.3-2.9c-0.1-0.2-0.3-0.3-0.5-0.5
		c-0.2-0.1-0.4-0.2-0.6-0.3c-0.2-0.1-0.5-0.1-0.7,0c-0.2,0-0.5,0.2-0.8,0.4c-0.2,0.1-0.3,0.3-0.4,0.5c-0.1,0.2-0.2,0.4-0.3,0.6
		c-0.1,0.2-0.1,0.5,0,0.7c0,0.2,0.1,0.5,0.3,0.7l2.5,3.2c0.1,0.1,0.1,0.2,0,0.3l-0.4,0.3c-0.1,0.1-0.3,0.1-0.4,0l-4-5.1
		c0-0.1-0.1-0.1-0.1-0.2c0-0.1,0-0.1,0.1-0.2l0.4-0.4c0.1,0,0.1-0.1,0.2-0.1c0.1,0,0.1,0,0.2,0.1L35,30.7z"/>
	<path class="st1" d="M43.9,27.5c-0.2-0.4-0.3-0.9-0.3-1.4s0-0.9,0.2-1.4c0.2-0.4,0.4-0.8,0.7-1.2c0.3-0.4,0.7-0.6,1.1-0.9
		c0.3-0.1,0.6-0.2,0.9-0.3c0.3-0.1,0.6-0.1,0.9,0c0.3,0,0.6,0.1,0.9,0.2c0.3,0.1,0.6,0.2,0.8,0.4c0.3,0.2,0.5,0.4,0.7,0.6
		c0.2,0.2,0.4,0.5,0.5,0.8c0.1,0.3,0.2,0.6,0.3,0.9c0.1,0.3,0.1,0.6,0,0.9c0,0.3-0.1,0.6-0.2,0.9c-0.1,0.3-0.2,0.6-0.4,0.8
		c-0.2,0.3-0.4,0.5-0.6,0.7c-0.2,0.2-0.5,0.4-0.8,0.5c-0.3,0.1-0.6,0.2-0.9,0.3c-0.3,0.1-0.6,0.1-0.9,0c-0.3,0-0.6-0.1-0.9-0.2
		c-0.3-0.1-0.6-0.2-0.8-0.4c-0.3-0.2-0.5-0.4-0.7-0.6C44.2,28,44,27.7,43.9,27.5 M44.9,27c0.2,0.3,0.4,0.6,0.6,0.8
		c0.3,0.2,0.5,0.4,0.8,0.5c0.3,0.1,0.6,0.2,1,0.2c0.3,0,0.7-0.1,1-0.2c0.3-0.1,0.6-0.4,0.8-0.6c0.2-0.3,0.4-0.5,0.5-0.8
		c0.1-0.3,0.1-0.6,0.1-1c0-0.3-0.1-0.7-0.3-1c-0.1-0.3-0.3-0.6-0.6-0.8c-0.3-0.2-0.5-0.4-0.8-0.5c-0.3-0.1-0.6-0.2-1-0.2
		c-0.3,0-0.7,0.1-1,0.2c-0.3,0.2-0.6,0.4-0.8,0.6c-0.2,0.3-0.4,0.5-0.5,0.9c-0.1,0.3-0.1,0.6-0.1,1C44.6,26.3,44.7,26.7,44.9,27"/>
	<path class="st1" d="M54.7,25.1c0,0-0.1-0.1-0.1-0.1c0,0,0-0.1,0-0.1c0,0,0,0,0-0.1c0,0,0,0,0.1-0.1l0.4-0.4c0.1-0.1,0.1-0.1,0.2,0
		c0.1,0,0.1,0.1,0.2,0.1c0.1,0.1,0.2,0.2,0.3,0.3c0.1,0.1,0.3,0.1,0.4,0.2c0.2,0,0.3,0,0.4,0c0.1,0,0.3,0,0.4,0
		c0.1,0,0.3-0.1,0.4-0.2c0.2-0.1,0.3-0.2,0.4-0.3c0.1-0.1,0.2-0.3,0.3-0.4c0.1-0.2,0.1-0.3,0-0.5c0-0.2-0.1-0.3-0.3-0.4
		c-0.1-0.1-0.3-0.2-0.4-0.2c-0.2,0-0.3-0.1-0.5-0.1c-0.2,0-0.4,0-0.6,0c-0.3,0-0.6,0-0.9-0.1c-0.3-0.1-0.5-0.1-0.7-0.3
		c-0.2-0.1-0.4-0.3-0.5-0.5c-0.1-0.2-0.2-0.4-0.3-0.7c-0.1-0.3-0.1-0.6,0-0.8c0.1-0.3,0.2-0.5,0.3-0.7c0.2-0.2,0.4-0.4,0.6-0.6
		c0.3-0.2,0.5-0.3,0.9-0.4c0.3-0.1,0.5-0.1,0.7-0.1c0.2,0,0.4,0,0.6,0.1c0.2,0.1,0.3,0.1,0.5,0.3c0.2,0.1,0.3,0.2,0.5,0.4
		c0.1,0.1,0.1,0.1,0.1,0.2c0,0.1,0,0.1-0.1,0.2l-0.3,0.4c-0.1,0.1-0.1,0.1-0.2,0.1c0,0-0.1,0-0.2-0.1c-0.1-0.1-0.2-0.1-0.3-0.2
		c-0.1-0.1-0.2-0.1-0.3-0.2c-0.1,0-0.2-0.1-0.4-0.1c-0.1,0-0.3,0-0.5,0.1c-0.2,0-0.3,0.1-0.4,0.2c-0.1,0.1-0.3,0.2-0.3,0.3
		c-0.1,0.1-0.2,0.2-0.2,0.4c0,0.1,0,0.3,0,0.4c0,0.1,0.1,0.2,0.2,0.3c0.1,0.1,0.2,0.1,0.4,0.2c0.2,0.1,0.3,0.1,0.5,0.1
		c0.2,0,0.3,0,0.5,0c0.4,0,0.7,0,1,0.1c0.3,0,0.6,0.1,0.8,0.2c0.2,0.1,0.4,0.3,0.6,0.5c0.2,0.2,0.3,0.4,0.4,0.7
		c0.1,0.3,0.1,0.6,0,0.9c-0.1,0.3-0.2,0.5-0.4,0.8c-0.2,0.2-0.4,0.4-0.7,0.6c-0.3,0.2-0.6,0.3-0.9,0.4C57.1,26,56.9,26,56.6,26
		c-0.2,0-0.5,0-0.7-0.1c-0.2-0.1-0.5-0.2-0.7-0.3C55,25.5,54.8,25.3,54.7,25.1"/>
	<path class="st1" d="M70.1,24.1c0,0.1-0.1,0.1-0.1,0.1c-0.1,0-0.1,0-0.2,0l-0.6,0c-0.2,0-0.2-0.1-0.2-0.2c0,0,0,0,0-0.1
		c0,0,0,0,0,0c0,0,0,0,0,0l3.8-7.3c0,0,0,0,0-0.1c0,0,0,0,0-0.1c0,0,0,0,0.1,0c0,0,0.1,0,0.1,0l0.4,0c0.1,0,0.1,0,0.1,0
		c0,0,0.1,0,0.1,0.1c0,0,0,0,0,0.1c0,0,0,0,0,0.1l2.5,7.8c0,0,0,0,0,0.1c0,0,0,0,0,0.1c0,0,0,0,0,0c0,0.1-0.1,0.2-0.3,0.2l-0.6,0
		c-0.1,0-0.1,0-0.2-0.1c0,0-0.1-0.1-0.1-0.2L74.6,23l-3.8-0.3c-0.2,0.3-0.3,0.6-0.4,0.9C70.3,23.8,70.2,24,70.1,24.1 M71.3,21.7
		l3,0.2l-1.2-3.8L71.3,21.7z"/>
	<path class="st1" d="M80.9,25.7c0,0.2-0.1,0.2-0.3,0.2l-0.5-0.1c-0.2,0-0.2-0.1-0.2-0.3l2.1-8.3c0-0.1,0.1-0.1,0.1-0.2
		c0.1,0,0.1,0,0.2,0l0.6,0.1c0.1,0,0.1,0.1,0.2,0.1c0,0.1,0,0.1,0,0.2L80.9,25.7z"/>
	<path class="st1" d="M86.1,27.4c-0.1,0.1-0.2,0.2-0.3,0.1l-0.5-0.2c-0.2-0.1-0.2-0.2-0.2-0.3l2.3-6c0-0.1,0.1-0.1,0.1-0.1
		c0.1,0,0.1,0,0.2,0l0.5,0.2c0.1,0,0.1,0.1,0.1,0.1c0,0.1,0,0.1,0,0.2L86.1,27.4z M88.9,20c-0.1,0.2-0.2,0.2-0.3,0.1l-0.5-0.2
		c-0.2-0.1-0.2-0.2-0.2-0.3l0.2-0.5c0-0.1,0.1-0.1,0.1-0.1c0.1,0,0.1,0,0.2,0l0.5,0.2c0.1,0,0.1,0.1,0.1,0.1c0,0.1,0,0.1,0,0.2
		L88.9,20z"/>
	<path class="st1" d="M95.3,31.5c-0.4,0.1-0.9,0.1-1.3,0.1c-0.5-0.1-0.9-0.2-1.3-0.5c-0.3-0.2-0.5-0.4-0.7-0.6
		c-0.2-0.2-0.4-0.5-0.5-0.8c-0.1-0.3-0.3-0.6-0.3-0.9c-0.1-0.3-0.1-0.6-0.1-0.9c0-0.3,0-0.6,0.1-0.9c0.1-0.3,0.2-0.6,0.4-0.9
		c0.2-0.3,0.4-0.5,0.6-0.7c0.2-0.2,0.5-0.4,0.8-0.5c0.3-0.1,0.6-0.3,0.9-0.3c0.3-0.1,0.6-0.1,0.9-0.1c0.3,0,0.6,0,0.9,0.1
		c0.3,0.1,0.6,0.2,0.9,0.4c0.4,0.3,0.8,0.6,1,0.9c0.3,0.4,0.4,0.8,0.5,1.2l0.3-0.6c0.1-0.1,0.2-0.2,0.3-0.1l0.5,0.3
		c0.1,0.1,0.2,0.2,0.1,0.3l-3.3,5.5c0,0.1-0.1,0.1-0.2,0.1c-0.1,0-0.1,0-0.2,0L95,32.4c-0.1,0-0.1-0.1-0.1-0.2c0-0.1,0-0.1,0-0.2
		L95.3,31.5z M96.6,29.3c0.2-0.3,0.3-0.6,0.3-0.9c0-0.3,0-0.7,0-1c-0.1-0.3-0.2-0.6-0.4-0.9c-0.2-0.3-0.4-0.5-0.7-0.7
		c-0.3-0.2-0.6-0.3-0.9-0.3c-0.3,0-0.6,0-1,0.1c-0.3,0.1-0.6,0.2-0.9,0.4c-0.3,0.2-0.5,0.4-0.7,0.7c-0.2,0.3-0.3,0.6-0.3,0.9
		c-0.1,0.3,0,0.7,0,1c0.1,0.3,0.2,0.6,0.4,0.9c0.2,0.3,0.4,0.5,0.7,0.7c0.3,0.2,0.6,0.3,0.9,0.3c0.3,0,0.7,0,1-0.1
		c0.3-0.1,0.6-0.2,0.9-0.4C96.2,29.8,96.4,29.6,96.6,29.3"/>
	<path class="st1" d="M103.1,39.4c-0.1-0.1-0.1-0.2,0-0.3l0.5-0.5c-0.4,0-0.9-0.1-1.3-0.2c-0.4-0.2-0.8-0.4-1.2-0.7
		c-0.2-0.2-0.4-0.5-0.6-0.8c-0.2-0.3-0.3-0.6-0.4-0.9c-0.1-0.3-0.1-0.6-0.1-0.9c0-0.3,0-0.6,0.1-0.9c0.1-0.3,0.2-0.6,0.3-0.9
		c0.2-0.3,0.3-0.5,0.6-0.8c0.2-0.2,0.5-0.4,0.8-0.6c0.3-0.2,0.6-0.3,0.9-0.4c0.3-0.1,0.6-0.1,0.9-0.1c0.3,0,0.6,0,0.9,0.1
		c0.3,0.1,0.6,0.2,0.9,0.3c0.3,0.1,0.5,0.3,0.8,0.6c0.3,0.3,0.6,0.7,0.8,1.1c0.2,0.4,0.3,0.9,0.3,1.3l1.9-2c0,0,0.1-0.1,0.2-0.1
		c0.1,0,0.1,0,0.2,0.1l0.4,0.4c0,0,0.1,0.1,0.1,0.2c0,0.1,0,0.1-0.1,0.2l-5.9,6.1c-0.1,0.1-0.2,0.1-0.4,0L103.1,39.4z M105.3,36.8
		c0.2-0.2,0.4-0.5,0.5-0.8c0.1-0.3,0.2-0.6,0.2-1c0-0.3-0.1-0.7-0.2-1c-0.1-0.3-0.3-0.6-0.5-0.8c-0.2-0.2-0.5-0.4-0.8-0.5
		c-0.3-0.1-0.6-0.2-1-0.1c-0.3,0-0.6,0.1-1,0.2c-0.3,0.1-0.6,0.3-0.8,0.6c-0.2,0.2-0.4,0.5-0.5,0.8c-0.1,0.3-0.2,0.6-0.2,1
		c0,0.3,0.1,0.6,0.2,0.9c0.1,0.3,0.3,0.6,0.5,0.8c0.2,0.2,0.5,0.4,0.8,0.5c0.3,0.1,0.6,0.2,1,0.2c0.3,0,0.6-0.1,1-0.2
		C104.8,37.2,105.1,37,105.3,36.8"/>
	<path class="st1" d="M110,47.3c-0.4-0.1-0.8-0.3-1.2-0.5c-0.4-0.3-0.7-0.6-1-1c-0.2-0.3-0.3-0.6-0.4-0.9c-0.1-0.3-0.1-0.6-0.2-0.9
		c0-0.3,0-0.6,0.1-0.9c0.1-0.3,0.2-0.6,0.3-0.9c0.1-0.3,0.3-0.5,0.5-0.8c0.2-0.2,0.5-0.4,0.7-0.6c0.3-0.2,0.6-0.3,0.9-0.4
		c0.3-0.1,0.6-0.1,0.9-0.2c0.3,0,0.6,0,0.9,0.1c0.3,0.1,0.6,0.2,0.9,0.3c0.3,0.1,0.5,0.3,0.8,0.5c0.2,0.2,0.4,0.5,0.6,0.7
		c0.3,0.4,0.4,0.8,0.5,1.3c0.1,0.4,0.1,0.9,0,1.3l0.6-0.4c0.1-0.1,0.2-0.1,0.3,0.1l0.3,0.5c0.1,0.1,0.1,0.3-0.1,0.3l-5.5,3.5
		c-0.1,0-0.1,0.1-0.2,0c-0.1,0-0.1-0.1-0.1-0.1l-0.3-0.5c0-0.1-0.1-0.1,0-0.2c0-0.1,0.1-0.1,0.1-0.1L110,47.3z M112.2,46
		c0.3-0.2,0.5-0.4,0.7-0.7c0.2-0.3,0.3-0.6,0.4-0.9c0.1-0.3,0.1-0.6,0-1c0-0.3-0.2-0.6-0.3-0.9c-0.2-0.3-0.4-0.5-0.7-0.7
		c-0.3-0.2-0.6-0.3-0.9-0.4c-0.3-0.1-0.6-0.1-1,0c-0.3,0.1-0.6,0.2-0.9,0.4c-0.3,0.2-0.5,0.4-0.7,0.7c-0.2,0.3-0.3,0.6-0.4,0.9
		c-0.1,0.3-0.1,0.6-0.1,1c0,0.3,0.2,0.6,0.3,0.9c0.2,0.3,0.4,0.5,0.7,0.7c0.3,0.2,0.6,0.3,0.9,0.4c0.3,0.1,0.7,0.1,1,0
		C111.6,46.3,111.9,46.2,112.2,46"/>
	<path class="st1" d="M112.5,51.4c0,0,0.1-0.1,0.1-0.1c0,0,0.1,0,0.1,0c0,0,0,0,0.1,0s0.1,0,0.1,0.1l0.4,0.4
		c0.1,0.1,0.1,0.1,0.1,0.2s-0.1,0.1-0.1,0.2c-0.1,0.1-0.2,0.2-0.3,0.4c-0.1,0.1-0.1,0.3-0.1,0.5c0,0.2,0,0.3,0,0.4
		c0,0.1,0,0.3,0.1,0.4c0,0.1,0.1,0.3,0.2,0.4c0.1,0.1,0.2,0.3,0.3,0.4c0.1,0.1,0.3,0.2,0.4,0.2c0.2,0,0.3,0,0.5,0
		c0.2-0.1,0.3-0.2,0.4-0.3c0.1-0.1,0.1-0.3,0.1-0.5c0-0.2,0-0.3,0-0.5c0-0.2,0-0.4-0.1-0.6c0-0.3,0-0.6,0-0.9c0-0.3,0.1-0.5,0.2-0.8
		c0.1-0.2,0.2-0.4,0.4-0.6c0.2-0.2,0.4-0.3,0.6-0.4c0.3-0.1,0.5-0.1,0.8-0.1c0.3,0,0.5,0.1,0.7,0.2c0.2,0.1,0.4,0.3,0.6,0.5
		c0.2,0.2,0.3,0.5,0.5,0.8c0.1,0.3,0.2,0.5,0.2,0.7c0,0.2,0,0.4,0,0.6c0,0.2-0.1,0.4-0.2,0.5c-0.1,0.2-0.2,0.4-0.3,0.6
		c-0.1,0.1-0.1,0.1-0.2,0.1c0,0-0.1,0-0.2,0l-0.5-0.3c-0.1-0.1-0.1-0.1-0.1-0.2c0,0,0-0.1,0.1-0.2c0.1-0.1,0.1-0.2,0.2-0.3
		c0.1-0.1,0.1-0.2,0.1-0.3c0-0.1,0-0.2,0-0.4c0-0.1,0-0.3-0.1-0.5c-0.1-0.2-0.1-0.3-0.2-0.4c-0.1-0.1-0.2-0.2-0.3-0.3
		c-0.1-0.1-0.2-0.1-0.4-0.2c-0.1,0-0.3,0-0.4,0.1c-0.1,0-0.2,0.1-0.3,0.2c-0.1,0.1-0.1,0.3-0.2,0.4c0,0.2-0.1,0.3-0.1,0.5
		c0,0.2,0,0.3,0,0.5c0,0.4,0.1,0.7,0.1,1c0,0.3-0.1,0.6-0.2,0.8c-0.1,0.3-0.2,0.5-0.4,0.7c-0.2,0.2-0.4,0.3-0.7,0.4
		c-0.3,0.1-0.6,0.2-0.9,0.1c-0.3,0-0.5-0.1-0.8-0.3c-0.2-0.1-0.5-0.3-0.7-0.6c-0.2-0.3-0.4-0.6-0.5-0.9c-0.1-0.2-0.1-0.4-0.2-0.7
		c0-0.2,0-0.5,0-0.7c0-0.2,0.1-0.5,0.2-0.7C112.2,51.8,112.3,51.6,112.5,51.4"/>
	<g class="st2">
		<g>
			<defs>
				<rect id="SVGID_1_" x="33.1" y="35.3" width="70.3" height="72.3"/>
			</defs>
			<clipPath id="SVGID_2_">
				<use xlink:href="#SVGID_1_"  style="overflow:visible;"/>
			</clipPath>
			<path class="st3" d="M42.1,56.7c1.6,0.1,2,1.6,1.4,3.4c-1.4,3.8-2.7,7.7-4.1,11.6c-0.3,0.9-0.2,1.8,0.9,2.1
				c1.2,0.3,1.4-0.6,1.6-1.5c0.8-2.7,1.5-5.6,2.6-8.2c1.6-3.7,3.5-7.3,5.4-10.9c0.9-1.7,2.6-2,3.8-1c1,0.8,1.1,2,0.5,3.4
				c-1.5,3.3-3.2,6.6-4.6,10c-1,2.5-1.7,5.1-2.5,7.8c-0.1,0.5,0.3,1.5,0.7,1.7c0.8,0.4,1.4-0.2,1.6-1.1c0.1-0.2,0.1-0.5,0.2-0.7
				c1.8-6.8,4.7-13,8.4-18.9c0.4-0.6,0.9-1.3,1.4-1.8c1-1.1,2.4-1.2,3.5-0.5c1.1,0.8,1.5,2.1,0.8,3.4c-0.3,0.7-0.7,1.3-1.1,2
				c-3,4.9-5.3,10.2-6.2,15.9c-0.3,2-0.3,4.2-0.1,6.2c0.2,1.9,1.6,2.9,3.2,2.9c1.7,0,2.8-1.1,3.2-3.1c0.2-1.1,0.4-2.3,0.7-3.3
				c0.4-1.3,1.3-2.3,2.8-2.3c1.5,0,2.6,0.7,3.1,2.1c0.4,1.2,0.7,2.4,0.7,3.6c0.3,6.3-1.6,11.8-5.5,16.8c-1.3,1.7-2.7,3.3-4.1,5
				c-0.8,1-0.6,2,0.1,3c0,0,0,0,0.1,0.1c0.9,1.3,0,3.1-1.6,3.1c-0.9,0-1.8-0.1-2.7-0.2c-12.6-2-22.8-13.5-23.3-27.1
				c-0.2-6.9,2-13.2,4.9-19.4c0.4-0.9,0.8-1.8,1.4-2.6C40,57.4,40.9,56.6,42.1,56.7"/>
			<path class="st3" d="M94.4,86.2c-1.6-0.1-2-1.6-1.4-3.4c1.4-3.8,2.7-7.7,4.1-11.6c0.3-0.9,0.2-1.8-0.9-2.1
				c-1.2-0.3-1.4,0.6-1.6,1.5c-0.8,2.7-1.5,5.6-2.6,8.2c-1.6,3.7-3.5,7.3-5.4,10.9c-0.9,1.7-2.6,2-3.8,1c-1-0.8-1.1-2-0.5-3.4
				c1.5-3.3,3.2-6.6,4.6-10c1-2.5,1.7-5.1,2.5-7.8c0.1-0.5-0.3-1.5-0.7-1.7c-0.8-0.4-1.4,0.2-1.6,1.1c-0.1,0.2-0.1,0.5-0.2,0.7
				c-1.8,6.8-4.7,13-8.4,18.9c-0.4,0.6-0.9,1.3-1.4,1.8c-1,1.1-2.4,1.2-3.5,0.5c-1.1-0.8-1.5-2.1-0.8-3.4c0.3-0.7,0.7-1.3,1.1-2
				c3-4.9,5.3-10.2,6.2-15.9c0.3-2,0.3-4.2,0.1-6.2c-0.2-1.9-1.6-2.9-3.2-2.9c-1.7,0-2.8,1.1-3.2,3.1c-0.2,1.1-0.4,2.3-0.7,3.3
				c-0.4,1.3-1.3,2.3-2.8,2.3c-1.5,0-2.6-0.7-3.1-2.1c-0.4-1.2-0.7-2.4-0.7-3.6c-0.3-6.3,1.6-11.8,5.5-16.8c1.3-1.7,2.7-3.3,4.1-5
				c0.8-1,0.6-2-0.1-3c0,0,0,0-0.1-0.1c-0.9-1.3,0-3.1,1.6-3.1c0.9,0,1.8,0.1,2.7,0.2c12.6,2,22.8,13.5,23.3,27.1
				c0.2,6.9-2,13.2-4.9,19.4c-0.4,0.9-0.8,1.8-1.4,2.6C96.5,85.5,95.5,86.3,94.4,86.2"/>
		</g>
	</g>
	<g>
		<defs>
			<path id="SVGID_3_" d="M50.5,52.5c-1.9,3.6-3.8,7.2-5.4,10.9c-1.1,2.6-1.8,5.4-2.6,8.2c-0.3,0.9-0.5,1.8-1.6,1.5
				c-1.1-0.3-1.2-1.2-0.9-2.1c1.3-3.9,2.6-7.8,4.1-11.6c0.7-1.8,0.3-3.3-1.4-3.4c-1.1-0.1-2.1,0.7-2.7,1.6c-0.6,0.8-1,1.7-1.4,2.6
				c-2.9,6.1-5.1,12.5-4.9,19.4c0.4,13.6,10.7,25.1,23.3,27.1c0.9,0.1,1.8,0.2,2.7,0.2c1.6,0,2.6-1.8,1.6-3.1c0,0,0,0-0.1-0.1
				c-0.7-1-0.9-2-0.1-3c1.3-1.7,2.8-3.3,4.1-5c3.8-4.9,5.7-10.5,5.5-16.8c0-1.2-0.3-2.5-0.7-3.6c-0.5-1.4-1.6-2.1-3.1-2.1
				c-1.5,0-2.4,1-2.8,2.3c-0.3,1.1-0.5,2.2-0.7,3.3c-0.4,1.9-1.6,3-3.2,3.1c-1.6,0-3-1-3.2-2.9c-0.2-2.1-0.2-4.2,0.1-6.2
				c0.9-5.7,3.2-11,6.2-15.9c0.4-0.7,0.8-1.3,1.1-2c0.6-1.3,0.3-2.6-0.8-3.4c-1.1-0.8-2.5-0.6-3.5,0.5c-0.5,0.6-1,1.2-1.4,1.8
				c-3.7,5.9-6.7,12.1-8.4,18.9c-0.1,0.2-0.1,0.5-0.2,0.7c-0.3,0.8-0.8,1.5-1.6,1.1c-0.4-0.2-0.9-1.2-0.7-1.7
				c0.7-2.6,1.4-5.3,2.5-7.8c1.4-3.4,3-6.7,4.6-10c0.7-1.4,0.5-2.6-0.4-3.4c-0.5-0.4-1-0.6-1.6-0.6C51.9,51,51,51.5,50.5,52.5"/>
		</defs>
		<clipPath id="SVGID_4_">
			<use xlink:href="#SVGID_3_"  style="overflow:visible;"/>
		</clipPath>
		
			<linearGradient id="SVGID_5_" gradientUnits="userSpaceOnUse" x1="-278.5457" y1="686.4832" x2="-278.2339" y2="686.4832" gradientTransform="matrix(177.1378 -161.9546 -161.9546 -177.1378 160556.1719 76583.9609)">
			<stop  offset="0" style="stop-color:#E9A521"/>
			<stop  offset="1" style="stop-color:#F06375"/>
		</linearGradient>
		<polygon class="st4" points="5.4,76.3 53.8,32.1 98.9,81.3 50.5,125.6 		"/>
	</g>
	<g>
		<defs>
			<path id="SVGID_6_" d="M76.4,37.7C76.4,37.7,76.4,37.8,76.4,37.7c0.7,1,0.9,2.1,0.2,3.1c-1.3,1.7-2.8,3.3-4.1,5
				c-3.8,4.9-5.7,10.5-5.5,16.8c0,1.2,0.3,2.5,0.7,3.6c0.5,1.4,1.6,2.1,3.1,2.1c1.5,0,2.4-1,2.8-2.3c0.3-1.1,0.5-2.2,0.7-3.3
				c0.4-1.9,1.6-3,3.2-3.1c1.6,0,3,1,3.2,2.9c0.2,2.1,0.2,4.2-0.1,6.2c-0.9,5.7-3.2,11-6.2,15.9c-0.4,0.7-0.8,1.3-1.1,2
				c-0.6,1.3-0.3,2.6,0.8,3.4c1.1,0.8,2.5,0.6,3.5-0.5c0.5-0.6,1-1.2,1.4-1.8c3.7-5.9,6.7-12.1,8.4-18.9c0.1-0.2,0.1-0.5,0.2-0.7
				c0.3-0.8,0.8-1.5,1.6-1.1c0.4,0.2,0.9,1.2,0.7,1.7c-0.7,2.6-1.4,5.3-2.5,7.8c-1.4,3.4-3,6.7-4.6,10c-0.7,1.4-0.5,2.6,0.5,3.4
				c1.3,1,3,0.7,3.8-1c1.9-3.6,3.8-7.2,5.4-10.9c1.1-2.6,1.8-5.4,2.6-8.2c0.3-0.9,0.5-1.8,1.6-1.5c1.1,0.3,1.2,1.2,0.9,2.1
				c-1.3,3.9-2.6,7.7-4.1,11.6c-0.7,1.8-0.3,3.3,1.4,3.4c1.1,0.1,2.1-0.7,2.7-1.6c0.6-0.8,1-1.7,1.4-2.6c2.9-6.1,5.1-12.5,4.9-19.4
				c-0.4-13.6-10.7-25.1-23.3-27.1c-0.9-0.1-1.8-0.2-2.7-0.2c0,0,0,0,0,0C76.4,34.6,75.4,36.4,76.4,37.7"/>
		</defs>
		<clipPath id="SVGID_7_">
			<use xlink:href="#SVGID_6_"  style="overflow:visible;"/>
		</clipPath>
		
			<linearGradient id="SVGID_8_" gradientUnits="userSpaceOnUse" x1="-278.5457" y1="686.5498" x2="-278.2339" y2="686.5498" gradientTransform="matrix(177.1378 -161.9546 -161.9546 -177.1378 160574.125 76603.5859)">
			<stop  offset="0" style="stop-color:#E9A521"/>
			<stop  offset="1" style="stop-color:#F06375"/>
		</linearGradient>
		<polygon class="st5" points="38.7,60.3 87.1,15.9 132.3,65.3 83.8,109.6 		"/>
	</g>
	<g class="st2">
		<g>
			<defs>
				<rect id="SVGID_9_" x="16.5" y="66.6" width="104.4" height="2.6"/>
			</defs>
			<clipPath id="SVGID_10_">
				<use xlink:href="#SVGID_9_"  style="overflow:visible;"/>
			</clipPath>
			<path class="st6" d="M120.9,67.9c0,0.7-0.6,1.3-1.3,1.3c-0.7,0-1.3-0.6-1.3-1.3c0-0.7,0.6-1.3,1.3-1.3
				C120.3,66.6,120.9,67.2,120.9,67.9"/>
			<path class="st6" d="M19.1,67.9c0,0.7-0.6,1.3-1.3,1.3c-0.7,0-1.3-0.6-1.3-1.3c0-0.7,0.6-1.3,1.3-1.3
				C18.5,66.6,19.1,67.2,19.1,67.9"/>
		</g>
	</g>
	<path class="st7" d="M121,67.7c0,0.7-0.6,1.3-1.3,1.3c-0.7,0-1.3-0.6-1.3-1.3c0-0.7,0.6-1.3,1.3-1.3C120.4,66.4,121,67,121,67.7"/>
	<path class="st7" d="M19.3,67.7c0,0.7-0.6,1.3-1.3,1.3c-0.7,0-1.3-0.6-1.3-1.3c0-0.7,0.6-1.3,1.3-1.3C18.7,66.4,19.3,67,19.3,67.7"
		/>
	<path class="st1" d="M67.1,104.7c0-0.6,0.3-1,0.9-1.4l0.6-0.4c0.4-0.2,0.6-0.5,0.6-0.9c0-0.4-0.3-0.8-0.8-0.8
		c-0.6,0-0.9,0.4-0.9,0.9c0,0.1,0,0.1,0,0.2l-0.3,0c0,0,0-0.1,0-0.2c0-0.7,0.5-1.2,1.2-1.2c0.8,0,1.2,0.5,1.2,1.1
		c0,0.8-0.9,1.2-1.5,1.7c-0.2,0.2-0.5,0.4-0.5,0.8h2.1v0.3H67.1z"/>
	<path class="st1" d="M72.3,100.9c1.1,0,1.4,1,1.4,2s-0.4,1.9-1.4,1.9c-1.1,0-1.4-1-1.4-1.9S71.3,100.9,72.3,100.9 M72.3,104.5
		c0.8,0,1.1-0.7,1.1-1.7s-0.3-1.7-1.1-1.7c-0.8,0-1.1,0.7-1.1,1.7S71.6,104.5,72.3,104.5"/>
	<path class="st1" d="M75.1,104.7c0-0.6,0.3-1,0.9-1.4l0.6-0.4c0.4-0.2,0.6-0.5,0.6-0.9c0-0.4-0.3-0.8-0.8-0.8
		c-0.6,0-0.9,0.4-0.9,0.9c0,0.1,0,0.1,0,0.2l-0.3,0c0,0,0-0.1,0-0.2c0-0.7,0.5-1.2,1.2-1.2c0.8,0,1.2,0.5,1.2,1.1
		c0,0.8-0.9,1.2-1.5,1.7c-0.2,0.2-0.5,0.4-0.5,0.8h2.1v0.3H75.1z"/>
	<path class="st1" d="M81.5,103.6c0,0.7-0.6,1.2-1.3,1.2c-0.8,0-1.3-0.5-1.3-1.1l0.3-0.1c0,0.6,0.5,0.9,1,0.9c0.6,0,1-0.4,1-0.9
		c0-0.6-0.4-0.8-0.9-0.8c-0.1,0-0.2,0-0.4,0l-0.2-0.3l1.3-1.3h-2.1v-0.3h2.5v0.3l-1.2,1.3c0.1,0,0.1,0,0.2,0
		C80.9,102.5,81.5,102.9,81.5,103.6"/>
	<polygon class="st1" points="24.2,84.3 19.6,85.8 19.5,85.4 24.1,83.9 23.5,82.1 23.9,82 25.2,85.9 24.8,86.1 	"/>
	<path class="st1" d="M21.2,90.2c-0.4-0.8,0.1-1.5,0.7-1.8l2-0.9l0.2,0.4l-2,0.9c-0.5,0.2-0.9,0.7-0.6,1.3c0.3,0.6,0.8,0.7,1.4,0.5
		l2-0.9l0.2,0.4l-2.6,1.2c-0.2,0.1-0.5,0.2-0.6,0.3l-0.2-0.4c0.1,0,0.2-0.1,0.4-0.2l0,0C21.9,90.9,21.5,90.7,21.2,90.2"/>
	<path class="st1" d="M27.1,98.8c-0.4,0.1-1,0-1.3-0.6c-0.6-0.8-0.2-1.8,0.6-2.4c0.9-0.6,1.9-0.5,2.4,0.3c0.4,0.6,0.2,1.2,0.1,1.4
		l0.6-0.4l0.3,0.4l-2.4,1.6c-0.3,0.2-0.5,0.4-0.5,0.4l-0.2-0.4c0.1-0.1,0.2-0.2,0.4-0.3L27.1,98.8z M26,98c0.4,0.6,1.2,0.6,1.9,0.2
		c0.7-0.5,0.9-1.2,0.5-1.8c-0.4-0.6-1.2-0.7-1.9-0.2C25.9,96.7,25.6,97.4,26,98"/>
	<path class="st1" d="M27.4,102.7l3.7-3.2l0.3,0.3l-0.5,0.5c0.4-0.1,1-0.1,1.5,0.5c0.7,0.8,0.4,1.7-0.4,2.4c-0.8,0.7-1.8,0.7-2.5,0
		c-0.4-0.5-0.4-1.1-0.3-1.5l-1.6,1.4L27.4,102.7z M32,101c-0.5-0.6-1.3-0.5-1.9,0c-0.6,0.5-0.8,1.3-0.3,1.9c0.5,0.6,1.3,0.5,1.9,0
		C32.3,102.3,32.5,101.5,32,101"/>
	<path class="st1" d="M33.5,104.8c0.8-0.8,1.8-0.9,2.6-0.2c0.7,0.7,0.8,1.7,0,2.6c-0.8,0.8-1.8,0.8-2.6,0.2
		C32.8,106.7,32.7,105.6,33.5,104.8 M33.8,107c0.5,0.5,1.3,0.5,2-0.2c0.6-0.7,0.5-1.5,0-2c-0.5-0.5-1.3-0.5-2,0.2
		C33.2,105.7,33.3,106.6,33.8,107"/>
	<path class="st1" d="M40.2,108.7c-0.1-0.1-0.1-0.1-0.2-0.2c-0.5-0.4-1.1-0.3-1.6,0.3l-1.2,1.5l-0.4-0.3l2.1-2.8l0.3,0.3L39,108
		c0.5-0.3,0.9-0.2,1.3,0.1c0.1,0.1,0.2,0.1,0.2,0.2L40.2,108.7z"/>
	<path class="st1" d="M42.7,109.8l0.8,0.5l-0.2,0.3l-0.8-0.5l-1.2,1.8c-0.2,0.4-0.2,0.6,0.2,0.9c0.1,0.1,0.2,0.1,0.3,0.1l-0.2,0.3
		c-0.1,0-0.2-0.1-0.4-0.2c-0.5-0.3-0.6-0.8-0.2-1.3l1.2-1.8l-0.6-0.4l0.2-0.3l0.2,0.1c0.3,0.2,0.5,0.1,0.7-0.2l0.3-0.5l0.4,0.2
		L42.7,109.8z"/>
	<path class="st1" d="M46.7,115c-0.5,0.4-1.2,0.6-1.9,0.3c-0.8-0.4-1.2-1.4-0.7-2.5c0.5-1,1.5-1.3,2.3-0.9c0.9,0.5,1.1,1.4,0.6,2.4
		c0,0.1,0,0.1-0.1,0.1l-2.5-1.3l0,0c-0.4,0.7-0.1,1.5,0.5,1.8c0.6,0.3,1.1,0.1,1.4-0.2L46.7,115z M46.8,113.9
		c0.3-0.6,0.2-1.2-0.5-1.6c-0.6-0.3-1.3-0.1-1.6,0.5L46.8,113.9z"/>
	<path class="st1" d="M52.3,118.3l-0.4-0.1l1.6-5.1l0.4,0.1l-0.7,2.3c0.3-0.3,0.8-0.4,1.3-0.3c0.8,0.3,1,0.9,0.8,1.6l-0.7,2.2
		l-0.4-0.1l0.7-2.1c0.2-0.5,0-1-0.6-1.2c-0.6-0.2-1.1,0.2-1.3,0.8L52.3,118.3z"/>
	<path class="st1" d="M60,119.6c-0.2,0.3-0.7,0.7-1.4,0.5c-1-0.2-1.4-1.1-1.2-2.1c0.2-1,1-1.7,2-1.5c0.7,0.1,1,0.7,1.1,1l0.1-0.7
		l0.4,0.1l-0.5,2.8c-0.1,0.4-0.1,0.6-0.1,0.7l-0.4-0.1c0-0.1,0-0.3,0.1-0.6L60,119.6z M58.8,119.7c0.7,0.1,1.3-0.4,1.5-1.2
		c0.2-0.8-0.2-1.5-0.9-1.7c-0.7-0.1-1.3,0.4-1.5,1.2C57.7,118.9,58,119.6,58.8,119.7"/>
	<path class="st1" d="M63.5,119c-0.1,0.9,0.4,1.5,1.1,1.6c0.7,0.1,1.1-0.4,1.2-0.8l0.4,0.2c-0.2,0.5-0.8,1-1.6,1
		c-1-0.1-1.7-0.9-1.6-2c0.1-1.1,0.9-1.8,1.9-1.7c0.8,0.1,1.3,0.6,1.4,1.2l-0.4,0.1c-0.1-0.4-0.4-0.9-1-1
		C64.2,117.5,63.6,118,63.5,119"/>
	<path class="st1" d="M71.7,119.9c-0.2,0.6-0.7,1.1-1.5,1.1c-0.9,0-1.7-0.6-1.8-1.8c0-1.1,0.7-1.9,1.6-1.9c1,0,1.7,0.7,1.7,1.7
		c0,0.1,0,0.1,0,0.2l-2.8,0.1l0,0c0,0.8,0.6,1.3,1.3,1.3c0.6,0,1-0.4,1.1-0.9L71.7,119.9z M71.2,118.9c0-0.7-0.5-1.2-1.2-1.2
		c-0.7,0-1.1,0.6-1.2,1.2L71.2,118.9z"/>
	
		<rect x="74.7" y="117.3" transform="matrix(0.1746 0.9846 -0.9846 0.1746 179.6296 20.8458)" class="st1" width="5.4" height="0.4"/>
	<path class="st1" d="M83.1,118.3c-0.1,0.4-0.3,0.9-1,1.1c-1,0.3-1.8-0.4-2.1-1.4c-0.3-1,0.1-2,1.1-2.2c0.7-0.2,1.2,0.1,1.4,0.4
		l-0.2-0.6l0.4-0.1l0.7,2.8c0.1,0.4,0.2,0.6,0.2,0.6l-0.4,0.1c0-0.1-0.1-0.3-0.2-0.5L83.1,118.3z M82.1,119c0.7-0.2,1-0.9,0.8-1.7
		c-0.2-0.8-0.8-1.3-1.5-1.1c-0.7,0.2-1,0.9-0.8,1.7C80.7,118.6,81.4,119.1,82.1,119"/>
	<path class="st1" d="M91.7,114.9c0,0.4-0.2,1-0.8,1.3c-0.9,0.4-1.8,0-2.3-1c-0.4-0.9-0.2-2,0.7-2.4c0.7-0.3,1.2-0.1,1.4,0.2
		l-1.1-2.2l0.4-0.2l2,4.2c0.2,0.3,0.3,0.6,0.3,0.6l-0.4,0.2c-0.1-0.1-0.2-0.3-0.3-0.5L91.7,114.9z M90.8,115.7
		c0.7-0.3,0.8-1.1,0.5-1.8c-0.4-0.8-1.1-1.1-1.7-0.8c-0.7,0.3-0.9,1.1-0.5,1.9C89.4,115.7,90.1,116.1,90.8,115.7"/>
	<path class="st1" d="M92.3,109.2c0.2-0.1,0.4-0.1,0.5,0.1c0.1,0.2,0,0.4-0.1,0.5c-0.2,0.1-0.4,0.1-0.5-0.1
		C92.1,109.5,92.1,109.3,92.3,109.2 M94.8,114l-1.8-3.1l0.4-0.2l1.8,3.1L94.8,114z"/>
	<path class="st1" d="M96.3,109.3l1.8,2.6l-0.4,0.3l-1.8-2.6l-0.6,0.4l-0.2-0.3l0.6-0.4l-0.4-0.6c-0.4-0.6-0.3-1.2,0.2-1.5
		c0.2-0.1,0.3-0.1,0.4-0.2l0.2,0.3c-0.1,0-0.2,0.1-0.3,0.1c-0.3,0.2-0.5,0.5-0.1,1l0.4,0.6l0.8-0.6l0.2,0.3L96.3,109.3z"/>
	<path class="st1" d="M102.4,107.3c0.2,0.6,0.1,1.3-0.5,1.8c-0.7,0.6-1.8,0.6-2.5-0.4c-0.7-0.9-0.6-1.9,0.1-2.5
		c0.8-0.7,1.7-0.5,2.4,0.3c0,0,0.1,0.1,0.1,0.1l-2.2,1.8l0,0c0.5,0.6,1.3,0.7,1.8,0.2c0.5-0.4,0.5-0.9,0.4-1.4L102.4,107.3z
		 M101.4,106.8c-0.4-0.5-1.1-0.6-1.7-0.2c-0.5,0.4-0.5,1.1-0.2,1.7L101.4,106.8z"/>
	<path class="st1" d="M104,102.9c-0.1,0-0.2,0.1-0.2,0.2c-0.4,0.4-0.5,1,0.1,1.6l1.4,1.4l-0.3,0.3l-2.5-2.5l0.3-0.3l0.5,0.5
		c-0.2-0.5-0.1-0.9,0.3-1.3c0.1-0.1,0.2-0.1,0.2-0.2L104,102.9z"/>
	<path class="st1" d="M108.8,100.5c0.3,0.5,0.4,1.3-0.2,1.9c-0.6,0.7-1.6,0.9-2.5,0.1c-0.9-0.7-0.9-1.8-0.4-2.4
		c0.7-0.8,1.6-0.8,2.4-0.1c0,0,0.1,0.1,0.1,0.1l-1.8,2.2l0,0c0.6,0.5,1.4,0.4,1.9-0.1c0.4-0.5,0.4-1,0.1-1.4L108.8,100.5z
		 M107.7,100.2c-0.5-0.4-1.2-0.4-1.7,0.1c-0.4,0.5-0.3,1.2,0.1,1.7L107.7,100.2z"/>
	<path class="st1" d="M111.4,98.7l-0.2,0.4l-2.9-2l0.2-0.4l0.5,0.3c-0.2-0.4-0.2-0.9,0.1-1.3c0.5-0.7,1.2-0.7,1.8-0.3l1.9,1.3
		l-0.2,0.4l-1.9-1.2c-0.5-0.3-1-0.3-1.4,0.2c-0.3,0.5-0.1,1.1,0.4,1.4L111.4,98.7z"/>
	<path class="st1" d="M112.7,93.3c0.8,0.4,1.6,0.2,1.9-0.5c0.3-0.6,0.1-1.1-0.2-1.4l0.3-0.3c0.4,0.4,0.7,1.1,0.3,1.9
		c-0.5,0.9-1.5,1.2-2.5,0.7c-1-0.5-1.3-1.5-0.9-2.4c0.4-0.8,1.1-1,1.7-0.8l0,0.4c-0.4-0.1-1,0-1.3,0.6
		C111.6,92.1,111.8,92.9,112.7,93.3"/>
	<path class="st1" d="M111.6,87.1c0.1-0.2,0.3-0.3,0.5-0.2c0.2,0.1,0.3,0.3,0.2,0.5c-0.1,0.2-0.3,0.3-0.5,0.2
		C111.6,87.5,111.6,87.3,111.6,87.1 M116.5,89.4l-3.3-1.4l0.2-0.4l3.3,1.4L116.5,89.4z"/>
	<path class="st1" d="M117.8,83.7c0.3,0.3,0.6,0.8,0.4,1.4c-0.3,0.9-1.3,1.3-2.3,1c-1-0.3-1.6-1.2-1.3-2.1c0.2-0.7,0.8-0.9,1.1-0.9
		l-0.6-0.2l0.1-0.4l2.7,0.9c0.3,0.1,0.6,0.2,0.7,0.2l-0.1,0.4c-0.1,0-0.3-0.1-0.5-0.1L117.8,83.7z M117.9,84.9
		c0.2-0.7-0.2-1.3-1-1.6c-0.8-0.3-1.5,0-1.7,0.7c-0.2,0.7,0.2,1.4,1,1.6C116.9,85.9,117.6,85.6,117.9,84.9"/>
</g>
</svg>
