<?xml version="1.0" encoding="utf-8"?>
<!-- Generator: Adobe Illustrator 19.1.0, SVG Export Plug-In . SVG Version: 6.00 Build 0)  -->
<svg version="1.1" id="Layer_1" xmlns="http://www.w3.org/2000/svg" xmlns:xlink="http://www.w3.org/1999/xlink" x="0px" y="0px"
	 viewBox="0 0 439.7 101.6" style="enable-background:new 0 0 439.7 101.6;" xml:space="preserve">
<style type="text/css">
	.st0{fill:#F2F2F2;}
</style>
<g>
	<path class="st0" d="M250.3,34.3c-4.9-6.9-11.5-11-20.5-11c-15.1,0-27.3,12.5-27.3,27.9c0,15.4,12.2,27.9,27.3,27.9
		c10.8,0,20.2-6.5,24.6-15.9h-28V40.4h51.4V5h45.8v22.8h-24c0,0-0.1,12.6,0,12.6h24v22.8h-24V75h24v22.2c0.8,0.1-45.8,0-45.8,0V63.4
		c-5.4,25.2-25.4,38.2-47.9,38.2c-22.3,0-40.8-13.3-46.2-36.9v6.1v26.5h-22.5V43.3c0,0-13,11.6-13,53.9h-23.1
		c0-42.3-13-53.9-13-53.9v53.9H89.3V3.6c26,0,43.1,29.5,47.1,46.9h0c4-17.4,21.2-46.9,47.1-46.9v31.2v-0.1C188,14,208.6,0,229.8,0
		c21.8,0,41,16.7,45.1,34.3H250.3z"/>
	<path class="st0" d="M373,97.2C369.7,71.8,353,53.7,353,53.7v43.6h-23.9V5c5.3,0,24.3,10.4,43.8,38.8V5h23.3v92.3H373z"/>
	<path class="st0" d="M61.4,97.3H84V3.4c-21.4-2-33,6.9-38.9,11.5c-12.9,9.8-20.8,24.4-27,37.7C11.8,65.9,5.7,85.8,2.6,97.5h23.3
		c1.6-6.5,5.6-20.7,6.2-23.3h18.7V52.6h-9.2c4.7-7.2,12.5-16.7,19.7-21.8v21.8H50.2v21.5h11.2V97.3z"/>
	<path class="st0" d="M409.5,16c0-7.7,6.2-13.9,13.8-13.9c7.6,0,13.7,6.3,13.7,13.9c0,7.7-6.1,14-13.7,14
		C415.7,30,409.5,23.7,409.5,16 M434.5,16c0-6.2-5-11.3-11.2-11.3c-6.2,0-11.2,5.1-11.2,11.3c0,6.3,5,11.4,11.2,11.4
		C429.5,27.4,434.5,22.3,434.5,16 M430.2,23.6h-3.4l-3.3-6.3h-2.9v6.3h-2.9v-15h7.2c1.3,0,2.9,0,4,0.7c1.3,0.9,1.8,2.3,1.8,3.9
		c0,2.7-1.4,3.9-4.1,4.1L430.2,23.6z M424.9,15c1.6,0,2.8-0.4,2.8-2.3c0-1.9-2.1-1.9-3.5-1.9h-3.6V15H424.9z"/>
</g>
</svg>
